G04 #@! TF.GenerationSoftware,KiCad,Pcbnew,(5.1.0)-1*
G04 #@! TF.CreationDate,2020-11-17T16:37:49-05:00*
G04 #@! TF.ProjectId,T61_LC_Scanner,5436315f-4c43-45f5-9363-616e6e65722e,rev?*
G04 #@! TF.SameCoordinates,Original*
G04 #@! TF.FileFunction,Copper,L1,Top*
G04 #@! TF.FilePolarity,Positive*
%FSLAX46Y46*%
G04 Gerber Fmt 4.6, Leading zero omitted, Abs format (unit mm)*
G04 Created by KiCad (PCBNEW (5.1.0)-1) date 2020-11-17 16:37:49*
%MOMM*%
%LPD*%
G04 APERTURE LIST*
%ADD10R,1.000000X1.100000*%
%ADD11R,0.900000X0.800000*%
%ADD12C,1.473200*%
%ADD13C,1.879600*%
%ADD14C,0.800000*%
%ADD15C,0.250000*%
G04 APERTURE END LIST*
D10*
X127386000Y-82829400D03*
X127386000Y-84529400D03*
D11*
X133398000Y-94213700D03*
X131298000Y-95163700D03*
X131298000Y-93263700D03*
X133495000Y-89250500D03*
X131395000Y-90200500D03*
X131395000Y-88300500D03*
D10*
X128900000Y-92200000D03*
X128900000Y-93900000D03*
X134850000Y-91248800D03*
X134850000Y-92948800D03*
X135550000Y-85600000D03*
X135550000Y-87300000D03*
X129150000Y-87500000D03*
X129150000Y-89200000D03*
D12*
X137638000Y-94091800D03*
X132558000Y-114411800D03*
X137638000Y-91551800D03*
X130018000Y-114411800D03*
X127478000Y-114411800D03*
X137638000Y-83931800D03*
X135098000Y-114411800D03*
X137638000Y-114411800D03*
X137638000Y-89011800D03*
X140178000Y-81391800D03*
X124938000Y-81391800D03*
X140178000Y-83931800D03*
X140178000Y-86471800D03*
X124938000Y-83931800D03*
X140178000Y-89011800D03*
X140178000Y-91551800D03*
X140178000Y-94091800D03*
X140178000Y-96631800D03*
X140178000Y-99171800D03*
X140178000Y-101711800D03*
X140178000Y-104251800D03*
X140178000Y-106791800D03*
X140178000Y-109331800D03*
X140178000Y-111871800D03*
X140178000Y-114411800D03*
X124938000Y-114411800D03*
X124938000Y-111871800D03*
X124938000Y-109331800D03*
X124938000Y-106791800D03*
X124938000Y-104251800D03*
X124938000Y-101711800D03*
X124938000Y-99171800D03*
X124938000Y-96631800D03*
X124938000Y-94091800D03*
X124938000Y-91551800D03*
X124938000Y-89011800D03*
X124938000Y-86471800D03*
D13*
X132650000Y-84800000D03*
D14*
X133050000Y-111000000D03*
X128854300Y-111300600D03*
X131250000Y-111700000D03*
X135200000Y-98050000D03*
X131622700Y-109748200D03*
X133750000Y-87900000D03*
X136200000Y-90300000D03*
X131788200Y-103956300D03*
X133144800Y-103884800D03*
X133156500Y-106193300D03*
X133410300Y-107208300D03*
X133926500Y-108258500D03*
X131870900Y-105399700D03*
X136777000Y-112570700D03*
X132455300Y-104636800D03*
X128845800Y-102870500D03*
X128501700Y-104195300D03*
X128099000Y-105150000D03*
X127503800Y-104227300D03*
X131388200Y-99485000D03*
X130483300Y-97602100D03*
X132765600Y-99476500D03*
X129000000Y-95850000D03*
X126450000Y-107800000D03*
X127550000Y-102000000D03*
X133127400Y-95650000D03*
X132670200Y-97887800D03*
X135750900Y-89105800D03*
X131084900Y-101137000D03*
D15*
X127386000Y-82829400D02*
X126608300Y-82829400D01*
X124938000Y-81391800D02*
X125170700Y-81391800D01*
X125170700Y-81391800D02*
X126608300Y-82829400D01*
X132558000Y-111492000D02*
X133050000Y-111000000D01*
X132558000Y-112758000D02*
X132558000Y-111492000D01*
X132558000Y-114411800D02*
X132558000Y-112758000D01*
X132558000Y-114411800D02*
X132558000Y-113158000D01*
X132558000Y-113158000D02*
X132558000Y-113008000D01*
X132558000Y-113008000D02*
X131250000Y-111700000D01*
X128854300Y-111300600D02*
X129582200Y-110572700D01*
X129582200Y-110572700D02*
X129582200Y-100970707D01*
X129582200Y-100970707D02*
X130387307Y-100165600D01*
X130387307Y-100165600D02*
X133079054Y-100165600D01*
X133079054Y-100165600D02*
X134362201Y-98882453D01*
X134362201Y-98882453D02*
X134367547Y-98882453D01*
X134367547Y-98882453D02*
X135200000Y-98050000D01*
X138696500Y-92610300D02*
X137638000Y-91551800D01*
X138950000Y-92863800D02*
X138696500Y-92610300D01*
X138950000Y-95250000D02*
X138950000Y-92863800D01*
X130790400Y-108915900D02*
X130790400Y-103980900D01*
X131622700Y-109748200D02*
X130790400Y-108915900D01*
X138293900Y-95906100D02*
X138950000Y-95250000D01*
X130790400Y-103980900D02*
X131950000Y-102821300D01*
X131950000Y-102821300D02*
X134908500Y-102821300D01*
X134908500Y-102821300D02*
X138293900Y-99435900D01*
X138293900Y-99435900D02*
X138293900Y-95906100D01*
X132022000Y-88300500D02*
X132122600Y-88300500D01*
X132122600Y-88300500D02*
X132122800Y-88300700D01*
X140178000Y-86471800D02*
X139536400Y-87113400D01*
X131395000Y-88300500D02*
X132022000Y-88300500D01*
X130713700Y-93263700D02*
X131298000Y-93263700D01*
X128900000Y-92200000D02*
X129650000Y-92200000D01*
X129650000Y-92200000D02*
X130713700Y-93263700D01*
X130695000Y-88300500D02*
X130200000Y-87805500D01*
X131395000Y-88300500D02*
X130695000Y-88300500D01*
X129900000Y-87500000D02*
X129150000Y-87500000D01*
X130200000Y-87800000D02*
X129900000Y-87500000D01*
X130200000Y-87805500D02*
X130200000Y-87800000D01*
X128400000Y-87500000D02*
X129150000Y-87500000D01*
X127386000Y-86486000D02*
X128400000Y-87500000D01*
X127386000Y-84529400D02*
X127386000Y-86486000D01*
X137574600Y-87113400D02*
X136594000Y-88094000D01*
X138063400Y-87113400D02*
X137574600Y-87113400D01*
X139536400Y-87113400D02*
X138063400Y-87113400D01*
X132436750Y-88614650D02*
X132122600Y-88300500D01*
X132436750Y-91447250D02*
X132436750Y-88614650D01*
X131298000Y-93263700D02*
X131298000Y-92586000D01*
X131298000Y-92586000D02*
X132436750Y-91447250D01*
X132436750Y-88614650D02*
X133151400Y-87900000D01*
X133151400Y-87900000D02*
X133750000Y-87900000D01*
X136452410Y-95852410D02*
X136452410Y-91452410D01*
X136594000Y-95994000D02*
X136452410Y-95852410D01*
X130018000Y-114411800D02*
X130387700Y-114042100D01*
X130387700Y-114042100D02*
X130387700Y-103775600D01*
X130387700Y-103775600D02*
X131944800Y-102218500D01*
X131944800Y-102218500D02*
X134927800Y-102218500D01*
X134927800Y-102218500D02*
X136594000Y-100552300D01*
X136594000Y-100552300D02*
X136594000Y-95994000D01*
X136452410Y-91452410D02*
X136452410Y-91352410D01*
X136200000Y-91100000D02*
X136200000Y-90300000D01*
X136452410Y-91352410D02*
X136200000Y-91100000D01*
X136200000Y-89659254D02*
X136428301Y-89430953D01*
X136200000Y-90300000D02*
X136200000Y-89659254D01*
X136428301Y-88259699D02*
X136594000Y-88094000D01*
X136428301Y-89430953D02*
X136428301Y-88259699D01*
X137638000Y-114411800D02*
X131193100Y-107966900D01*
X131193100Y-107966900D02*
X131193100Y-104551400D01*
X131193100Y-104551400D02*
X131788200Y-103956300D01*
X129150000Y-89250000D02*
X129150000Y-89200000D01*
X130100500Y-90200500D02*
X129150000Y-89250000D01*
X131395000Y-90200500D02*
X130100500Y-90200500D01*
X128750000Y-89200000D02*
X129150000Y-89200000D01*
X126550000Y-87000000D02*
X128750000Y-89200000D01*
X126550000Y-85900000D02*
X126550000Y-87000000D01*
X125674599Y-85024599D02*
X126550000Y-85900000D01*
X124938000Y-83931800D02*
X125674599Y-84668399D01*
X125674599Y-84668399D02*
X125674599Y-85024599D01*
X138897800Y-99401700D02*
X134414700Y-103884800D01*
X134414700Y-103884800D02*
X133144800Y-103884800D01*
X138897800Y-97912000D02*
X140178000Y-96631800D01*
X138897800Y-99401700D02*
X138897800Y-97912000D01*
X140178000Y-99171800D02*
X133156500Y-106193300D01*
X140178000Y-101711800D02*
X138906800Y-101711800D01*
X138906800Y-101711800D02*
X133410300Y-107208300D01*
X140178000Y-104251800D02*
X137933200Y-104251800D01*
X137933200Y-104251800D02*
X133926500Y-108258500D01*
X136777000Y-112570700D02*
X136710700Y-112570700D01*
X136710700Y-112570700D02*
X131870900Y-107730900D01*
X131870900Y-107730900D02*
X131870900Y-105399700D01*
X140178000Y-111871800D02*
X136581400Y-111871800D01*
X136581400Y-111871800D02*
X132421800Y-107712200D01*
X132421800Y-107712200D02*
X132421800Y-105807300D01*
X132421800Y-105807300D02*
X132599200Y-105629900D01*
X132599200Y-105629900D02*
X132599200Y-104780700D01*
X132599200Y-104780700D02*
X132455300Y-104636800D01*
X128845800Y-102870500D02*
X129179500Y-103204200D01*
X129179500Y-103204200D02*
X129179500Y-109720100D01*
X129179500Y-109720100D02*
X124938000Y-113961600D01*
X124938000Y-113961600D02*
X124938000Y-114411800D01*
X128776800Y-104470400D02*
X128501700Y-104195300D01*
X128776800Y-109073200D02*
X128776800Y-104470400D01*
X126714799Y-111135201D02*
X128776800Y-109073200D01*
X124938000Y-111871800D02*
X125674599Y-111135201D01*
X125674599Y-111135201D02*
X126714799Y-111135201D01*
X128099000Y-105715685D02*
X128099000Y-105150000D01*
X128099000Y-108799000D02*
X128099000Y-105715685D01*
X127566200Y-109331800D02*
X128099000Y-108799000D01*
X124938000Y-109331800D02*
X127566200Y-109331800D01*
X127103801Y-105653801D02*
X127103801Y-104627299D01*
X127600000Y-108450000D02*
X127600000Y-106150000D01*
X127103801Y-104627299D02*
X127503800Y-104227300D01*
X126250000Y-108750000D02*
X127300000Y-108750000D01*
X127600000Y-106150000D02*
X127103801Y-105653801D01*
X127300000Y-108750000D02*
X127600000Y-108450000D01*
X125674599Y-108174599D02*
X126250000Y-108750000D01*
X125674599Y-107528399D02*
X125674599Y-108174599D01*
X124938000Y-106791800D02*
X125674599Y-107528399D01*
X126823100Y-95976900D02*
X126823100Y-97023100D01*
X124938000Y-94091800D02*
X126823100Y-95976900D01*
X129662515Y-98325000D02*
X128125000Y-98325000D01*
X130822515Y-99485000D02*
X129662515Y-98325000D01*
X131388200Y-99485000D02*
X130822515Y-99485000D01*
X126823100Y-97023100D02*
X128125000Y-98325000D01*
X125300000Y-91913800D02*
X124938000Y-91551800D01*
X125300000Y-92400000D02*
X125300000Y-91913800D01*
X127550000Y-94650000D02*
X125300000Y-92400000D01*
X127550000Y-96850000D02*
X127550000Y-94650000D01*
X130483300Y-97602100D02*
X128302100Y-97602100D01*
X128302100Y-97602100D02*
X127550000Y-96850000D01*
X130181600Y-95850000D02*
X129000000Y-95850000D01*
X131615800Y-98326700D02*
X131615800Y-97284200D01*
X132765600Y-99476500D02*
X131615800Y-98326700D01*
X131615800Y-97284200D02*
X130181600Y-95850000D01*
X124938000Y-86471800D02*
X126266000Y-87799800D01*
X129650000Y-93900000D02*
X130150000Y-94400000D01*
X128900000Y-93900000D02*
X129650000Y-93900000D01*
X131248000Y-95163700D02*
X131298000Y-95163700D01*
X130484300Y-94400000D02*
X131248000Y-95163700D01*
X130150000Y-94400000D02*
X130484300Y-94400000D01*
X127750000Y-93900000D02*
X128900000Y-93900000D01*
X126266000Y-92416000D02*
X127750000Y-93900000D01*
X126266000Y-91884000D02*
X126266000Y-92416000D01*
X126266000Y-87799800D02*
X126266000Y-91884000D01*
X126450000Y-103100000D02*
X127550000Y-102000000D01*
X126450000Y-104600000D02*
X126450000Y-103100000D01*
X126450000Y-107800000D02*
X126450000Y-104600000D01*
X133398000Y-94213700D02*
X133398000Y-95379400D01*
X133398000Y-95379400D02*
X133127400Y-95650000D01*
X134662900Y-92948800D02*
X133398000Y-94213700D01*
X134850000Y-92948800D02*
X134662900Y-92948800D01*
X133548700Y-89250500D02*
X133602400Y-89250500D01*
X133495000Y-89250500D02*
X133548700Y-89250500D01*
X133602400Y-89250500D02*
X134828300Y-88024600D01*
X132670200Y-97270200D02*
X132670200Y-97887800D01*
X132450000Y-97050000D02*
X132670200Y-97270200D01*
X132450000Y-93400000D02*
X132450000Y-97050000D01*
X133495000Y-89250500D02*
X133495000Y-92355000D01*
X133495000Y-92355000D02*
X132450000Y-93400000D01*
X134875400Y-88024600D02*
X134828300Y-88024600D01*
X135550000Y-87350000D02*
X134875400Y-88024600D01*
X135550000Y-87300000D02*
X135550000Y-87350000D01*
X140178000Y-81391800D02*
X137638000Y-83931800D01*
X129985000Y-102236900D02*
X131084900Y-101137000D01*
X129985000Y-111904800D02*
X129985000Y-102236900D01*
X127478000Y-114411800D02*
X129985000Y-111904800D01*
X134850000Y-90006700D02*
X134850000Y-91248800D01*
X135750900Y-89105800D02*
X134850000Y-90006700D01*
X135600000Y-91248800D02*
X134850000Y-91248800D01*
X136050000Y-91698800D02*
X135600000Y-91248800D01*
X136050000Y-100241590D02*
X136050000Y-91698800D01*
X135154590Y-101137000D02*
X136050000Y-100241590D01*
X131084900Y-101137000D02*
X135154590Y-101137000D01*
X135969800Y-85600000D02*
X135550000Y-85600000D01*
X137638000Y-83931800D02*
X135969800Y-85600000D01*
M02*
