M48
; DRILL file {KiCad (5.1.0)-1} date 11/17/2020 4:37:51 PM
; FORMAT={-:-/ absolute / inch / decimal}
; #@! TF.CreationDate,2020-11-17T16:37:51-05:00
; #@! TF.GenerationSoftware,Kicad,Pcbnew,(5.1.0)-1
FMAT,2
INCH
T1C0.0157
T2C0.0380
T3C0.0400
%
G90
G05
T1
X4.9783Y-4.2441
X5.0198Y-4.1034
X5.0217Y-4.0157
X5.0433Y-4.1398
X5.0591Y-4.1022
X5.0727Y-4.05
X5.073Y-4.3819
X5.0787Y-3.7736
X5.1371Y-3.8426
X5.1608Y-3.9818
X5.1673Y-4.3976
X5.1728Y-3.9167
X5.182Y-4.3208
X5.1885Y-4.0928
X5.1918Y-4.1496
X5.2148Y-4.1196
X5.2232Y-3.8539
X5.227Y-3.9164
X5.2382Y-4.3701
X5.2412Y-3.7657
X5.2419Y-4.09
X5.2424Y-4.1808
X5.2524Y-4.2208
X5.2657Y-3.4606
X5.2727Y-4.2621
X5.3228Y-3.8602
X5.3445Y-3.5081
X5.3622Y-3.5551
X5.3849Y-4.4319
T2
X4.9188Y-3.2044
X4.9188Y-3.3044
X4.9188Y-3.4044
X4.9188Y-3.5044
X4.9188Y-3.6044
X4.9188Y-3.7044
X4.9188Y-3.8044
X4.9188Y-3.9044
X4.9188Y-4.0044
X4.9188Y-4.1044
X4.9188Y-4.2044
X4.9188Y-4.3044
X4.9188Y-4.4044
X4.9188Y-4.5044
X5.0188Y-4.5044
X5.1188Y-4.5044
X5.2188Y-4.5044
X5.3188Y-4.5044
X5.4188Y-3.3044
X5.4188Y-3.5044
X5.4188Y-3.6044
X5.4188Y-3.7044
X5.4188Y-4.5044
X5.5188Y-3.2044
X5.5188Y-3.3044
X5.5188Y-3.4044
X5.5188Y-3.5044
X5.5188Y-3.6044
X5.5188Y-3.7044
X5.5188Y-3.8044
X5.5188Y-3.9044
X5.5188Y-4.0044
X5.5188Y-4.1044
X5.5188Y-4.2044
X5.5188Y-4.3044
X5.5188Y-4.4044
X5.5188Y-4.5044
T3
X5.2224Y-3.3386
T0
M30
