G04 #@! TF.GenerationSoftware,KiCad,Pcbnew,(5.1.0)-1*
G04 #@! TF.CreationDate,2020-11-17T16:37:49-05:00*
G04 #@! TF.ProjectId,T61_LC_Scanner,5436315f-4c43-45f5-9363-616e6e65722e,rev?*
G04 #@! TF.SameCoordinates,Original*
G04 #@! TF.FileFunction,Legend,Bot*
G04 #@! TF.FilePolarity,Positive*
%FSLAX46Y46*%
G04 Gerber Fmt 4.6, Leading zero omitted, Abs format (unit mm)*
G04 Created by KiCad (PCBNEW (5.1.0)-1) date 2020-11-17 16:37:49*
%MOMM*%
%LPD*%
G04 APERTURE LIST*
%ADD10C,0.150000*%
%ADD11C,0.081280*%
%ADD12C,0.127000*%
%ADD13C,0.032512*%
G04 APERTURE END LIST*
D10*
X128202725Y-110104460D02*
X128250344Y-110152080D01*
X128345582Y-110199699D01*
X128583678Y-110199699D01*
X128678916Y-110152080D01*
X128726535Y-110104460D01*
X128774154Y-110009222D01*
X128774154Y-109913984D01*
X128726535Y-109771127D01*
X128155106Y-109199699D01*
X128774154Y-109199699D01*
X137770484Y-109699699D02*
X137199056Y-109699699D01*
X137484770Y-109699699D02*
X137484770Y-110699699D01*
X137389532Y-110556841D01*
X137294294Y-110461603D01*
X137199056Y-110413984D01*
X136475797Y-101144219D02*
X137094844Y-101144219D01*
X136761511Y-100763266D01*
X136904368Y-100763266D01*
X136999606Y-100715647D01*
X137047225Y-100668028D01*
X137094844Y-100572790D01*
X137094844Y-100334695D01*
X137047225Y-100239457D01*
X136999606Y-100191838D01*
X136904368Y-100144219D01*
X136618654Y-100144219D01*
X136523416Y-100191838D01*
X136475797Y-100239457D01*
X137571035Y-100144219D02*
X137761511Y-100144219D01*
X137856749Y-100191838D01*
X137904368Y-100239457D01*
X137999606Y-100382314D01*
X138047225Y-100572790D01*
X138047225Y-100953742D01*
X137999606Y-101048980D01*
X137951987Y-101096600D01*
X137856749Y-101144219D01*
X137666273Y-101144219D01*
X137571035Y-101096600D01*
X137523416Y-101048980D01*
X137475797Y-100953742D01*
X137475797Y-100715647D01*
X137523416Y-100620409D01*
X137571035Y-100572790D01*
X137666273Y-100525171D01*
X137856749Y-100525171D01*
X137951987Y-100572790D01*
X137999606Y-100620409D01*
X138047225Y-100715647D01*
X128013086Y-100810885D02*
X128013086Y-100144219D01*
X127774991Y-101191838D02*
X127536896Y-100477552D01*
X128155943Y-100477552D01*
X128727372Y-101144219D02*
X128822610Y-101144219D01*
X128917848Y-101096600D01*
X128965467Y-101048980D01*
X129013086Y-100953742D01*
X129060705Y-100763266D01*
X129060705Y-100525171D01*
X129013086Y-100334695D01*
X128965467Y-100239457D01*
X128917848Y-100191838D01*
X128822610Y-100144219D01*
X128727372Y-100144219D01*
X128632134Y-100191838D01*
X128584515Y-100239457D01*
X128536896Y-100334695D01*
X128489277Y-100525171D01*
X128489277Y-100763266D01*
X128536896Y-100953742D01*
X128584515Y-101048980D01*
X128632134Y-101096600D01*
X128727372Y-101144219D01*
D11*
X127497598Y-81378310D02*
X127497598Y-80918691D01*
X126532398Y-80918691D01*
X127451636Y-82067739D02*
X127497598Y-81975815D01*
X127497598Y-81791967D01*
X127451636Y-81700043D01*
X127359712Y-81654082D01*
X126992017Y-81654082D01*
X126900093Y-81700043D01*
X126854131Y-81791967D01*
X126854131Y-81975815D01*
X126900093Y-82067739D01*
X126992017Y-82113701D01*
X127083940Y-82113701D01*
X127175864Y-81654082D01*
X126854131Y-82527358D02*
X127497598Y-82527358D01*
X126946055Y-82527358D02*
X126900093Y-82573320D01*
X126854131Y-82665243D01*
X126854131Y-82803129D01*
X126900093Y-82895053D01*
X126992017Y-82941015D01*
X127497598Y-82941015D01*
X127497598Y-83538520D02*
X127451636Y-83446596D01*
X127405674Y-83400634D01*
X127313750Y-83354672D01*
X127037979Y-83354672D01*
X126946055Y-83400634D01*
X126900093Y-83446596D01*
X126854131Y-83538520D01*
X126854131Y-83676405D01*
X126900093Y-83768329D01*
X126946055Y-83814291D01*
X127037979Y-83860253D01*
X127313750Y-83860253D01*
X127405674Y-83814291D01*
X127451636Y-83768329D01*
X127497598Y-83676405D01*
X127497598Y-83538520D01*
X126854131Y-84181986D02*
X127497598Y-84411796D01*
X126854131Y-84641605D01*
X127497598Y-85147186D02*
X127451636Y-85055262D01*
X127405674Y-85009301D01*
X127313750Y-84963339D01*
X127037979Y-84963339D01*
X126946055Y-85009301D01*
X126900093Y-85055262D01*
X126854131Y-85147186D01*
X126854131Y-85285072D01*
X126900093Y-85376996D01*
X126946055Y-85422958D01*
X127037979Y-85468920D01*
X127313750Y-85468920D01*
X127405674Y-85422958D01*
X127451636Y-85376996D01*
X127497598Y-85285072D01*
X127497598Y-85147186D01*
X126532398Y-86480082D02*
X126532398Y-87031624D01*
X127497598Y-86755853D02*
X126532398Y-86755853D01*
X126532398Y-87767015D02*
X126532398Y-87583167D01*
X126578360Y-87491243D01*
X126624321Y-87445282D01*
X126762207Y-87353358D01*
X126946055Y-87307396D01*
X127313750Y-87307396D01*
X127405674Y-87353358D01*
X127451636Y-87399320D01*
X127497598Y-87491243D01*
X127497598Y-87675091D01*
X127451636Y-87767015D01*
X127405674Y-87812977D01*
X127313750Y-87858939D01*
X127083940Y-87858939D01*
X126992017Y-87812977D01*
X126946055Y-87767015D01*
X126900093Y-87675091D01*
X126900093Y-87491243D01*
X126946055Y-87399320D01*
X126992017Y-87353358D01*
X127083940Y-87307396D01*
X127497598Y-88778177D02*
X127497598Y-88226634D01*
X127497598Y-88502405D02*
X126532398Y-88502405D01*
X126670283Y-88410482D01*
X126762207Y-88318558D01*
X126808169Y-88226634D01*
X127405674Y-90478767D02*
X127451636Y-90432805D01*
X127497598Y-90294920D01*
X127497598Y-90202996D01*
X127451636Y-90065110D01*
X127359712Y-89973186D01*
X127267788Y-89927224D01*
X127083940Y-89881262D01*
X126946055Y-89881262D01*
X126762207Y-89927224D01*
X126670283Y-89973186D01*
X126578360Y-90065110D01*
X126532398Y-90202996D01*
X126532398Y-90294920D01*
X126578360Y-90432805D01*
X126624321Y-90478767D01*
X127497598Y-91030310D02*
X127451636Y-90938386D01*
X127405674Y-90892424D01*
X127313750Y-90846462D01*
X127037979Y-90846462D01*
X126946055Y-90892424D01*
X126900093Y-90938386D01*
X126854131Y-91030310D01*
X126854131Y-91168196D01*
X126900093Y-91260120D01*
X126946055Y-91306082D01*
X127037979Y-91352043D01*
X127313750Y-91352043D01*
X127405674Y-91306082D01*
X127451636Y-91260120D01*
X127497598Y-91168196D01*
X127497598Y-91030310D01*
X126854131Y-91765701D02*
X127497598Y-91765701D01*
X126946055Y-91765701D02*
X126900093Y-91811662D01*
X126854131Y-91903586D01*
X126854131Y-92041472D01*
X126900093Y-92133396D01*
X126992017Y-92179358D01*
X127497598Y-92179358D01*
X126854131Y-92501091D02*
X126854131Y-92868786D01*
X126532398Y-92638977D02*
X127359712Y-92638977D01*
X127451636Y-92684939D01*
X127497598Y-92776862D01*
X127497598Y-92868786D01*
X127497598Y-93190520D02*
X126854131Y-93190520D01*
X127037979Y-93190520D02*
X126946055Y-93236482D01*
X126900093Y-93282443D01*
X126854131Y-93374367D01*
X126854131Y-93466291D01*
X127497598Y-93925910D02*
X127451636Y-93833986D01*
X127405674Y-93788024D01*
X127313750Y-93742062D01*
X127037979Y-93742062D01*
X126946055Y-93788024D01*
X126900093Y-93833986D01*
X126854131Y-93925910D01*
X126854131Y-94063796D01*
X126900093Y-94155720D01*
X126946055Y-94201682D01*
X127037979Y-94247643D01*
X127313750Y-94247643D01*
X127405674Y-94201682D01*
X127451636Y-94155720D01*
X127497598Y-94063796D01*
X127497598Y-93925910D01*
X127497598Y-94799186D02*
X127451636Y-94707262D01*
X127359712Y-94661301D01*
X126532398Y-94661301D01*
X127497598Y-95304767D02*
X127451636Y-95212843D01*
X127359712Y-95166882D01*
X126532398Y-95166882D01*
X127451636Y-96040158D02*
X127497598Y-95948234D01*
X127497598Y-95764386D01*
X127451636Y-95672462D01*
X127359712Y-95626501D01*
X126992017Y-95626501D01*
X126900093Y-95672462D01*
X126854131Y-95764386D01*
X126854131Y-95948234D01*
X126900093Y-96040158D01*
X126992017Y-96086120D01*
X127083940Y-96086120D01*
X127175864Y-95626501D01*
X127497598Y-96499777D02*
X126854131Y-96499777D01*
X127037979Y-96499777D02*
X126946055Y-96545739D01*
X126900093Y-96591701D01*
X126854131Y-96683624D01*
X126854131Y-96775548D01*
X128091958Y-81018355D02*
X129057158Y-81340089D01*
X128091958Y-81661822D01*
X129011196Y-82351251D02*
X129057158Y-82259327D01*
X129057158Y-82075479D01*
X129011196Y-81983555D01*
X128919272Y-81937593D01*
X128551577Y-81937593D01*
X128459653Y-81983555D01*
X128413691Y-82075479D01*
X128413691Y-82259327D01*
X128459653Y-82351251D01*
X128551577Y-82397212D01*
X128643500Y-82397212D01*
X128735424Y-81937593D01*
X129057158Y-82810870D02*
X128413691Y-82810870D01*
X128597539Y-82810870D02*
X128505615Y-82856832D01*
X128459653Y-82902793D01*
X128413691Y-82994717D01*
X128413691Y-83086641D01*
X129011196Y-83362412D02*
X129057158Y-83454336D01*
X129057158Y-83638184D01*
X129011196Y-83730108D01*
X128919272Y-83776070D01*
X128873310Y-83776070D01*
X128781386Y-83730108D01*
X128735424Y-83638184D01*
X128735424Y-83500298D01*
X128689462Y-83408374D01*
X128597539Y-83362412D01*
X128551577Y-83362412D01*
X128459653Y-83408374D01*
X128413691Y-83500298D01*
X128413691Y-83638184D01*
X128459653Y-83730108D01*
X129057158Y-84189727D02*
X128413691Y-84189727D01*
X128091958Y-84189727D02*
X128137920Y-84143765D01*
X128183881Y-84189727D01*
X128137920Y-84235689D01*
X128091958Y-84189727D01*
X128183881Y-84189727D01*
X129057158Y-84787232D02*
X129011196Y-84695308D01*
X128965234Y-84649346D01*
X128873310Y-84603384D01*
X128597539Y-84603384D01*
X128505615Y-84649346D01*
X128459653Y-84695308D01*
X128413691Y-84787232D01*
X128413691Y-84925117D01*
X128459653Y-85017041D01*
X128505615Y-85063003D01*
X128597539Y-85108965D01*
X128873310Y-85108965D01*
X128965234Y-85063003D01*
X129011196Y-85017041D01*
X129057158Y-84925117D01*
X129057158Y-84787232D01*
X128413691Y-85522622D02*
X129057158Y-85522622D01*
X128505615Y-85522622D02*
X128459653Y-85568584D01*
X128413691Y-85660508D01*
X128413691Y-85798393D01*
X128459653Y-85890317D01*
X128551577Y-85936279D01*
X129057158Y-85936279D01*
X128183881Y-87085327D02*
X128137920Y-87131289D01*
X128091958Y-87223212D01*
X128091958Y-87453022D01*
X128137920Y-87544946D01*
X128183881Y-87590908D01*
X128275805Y-87636870D01*
X128367729Y-87636870D01*
X128505615Y-87590908D01*
X129057158Y-87039365D01*
X129057158Y-87636870D01*
X128965234Y-88050527D02*
X129011196Y-88096489D01*
X129057158Y-88050527D01*
X129011196Y-88004565D01*
X128965234Y-88050527D01*
X129057158Y-88050527D01*
X129057158Y-89015727D02*
X129057158Y-88464184D01*
X129057158Y-88739955D02*
X128091958Y-88739955D01*
X128229843Y-88648032D01*
X128321767Y-88556108D01*
X128367729Y-88464184D01*
X129057158Y-90164774D02*
X128091958Y-90164774D01*
X128551577Y-90164774D02*
X128551577Y-90716317D01*
X129057158Y-90716317D02*
X128091958Y-90716317D01*
X129057158Y-91175936D02*
X128091958Y-91175936D01*
X128091958Y-91405746D01*
X128137920Y-91543632D01*
X128229843Y-91635555D01*
X128321767Y-91681517D01*
X128505615Y-91727479D01*
X128643500Y-91727479D01*
X128827348Y-91681517D01*
X128919272Y-91635555D01*
X129011196Y-91543632D01*
X129057158Y-91405746D01*
X129057158Y-91175936D01*
X129057158Y-92692679D02*
X128597539Y-92370946D01*
X129057158Y-92141136D02*
X128091958Y-92141136D01*
X128091958Y-92508832D01*
X128137920Y-92600755D01*
X128183881Y-92646717D01*
X128275805Y-92692679D01*
X128413691Y-92692679D01*
X128505615Y-92646717D01*
X128551577Y-92600755D01*
X128597539Y-92508832D01*
X128597539Y-92141136D01*
D12*
X137147606Y-110070000D02*
G75*
G03X137147606Y-110070000I-223606J0D01*
G01*
D13*
X133099671Y-105361775D02*
X133099671Y-105637546D01*
X133118056Y-105692700D01*
X133154826Y-105729470D01*
X133209980Y-105747855D01*
X133246749Y-105747855D01*
X132713591Y-105747855D02*
X132934208Y-105747855D01*
X132823900Y-105747855D02*
X132823900Y-105361775D01*
X132860669Y-105416929D01*
X132897439Y-105453699D01*
X132934208Y-105472083D01*
M02*
