G04 #@! TF.GenerationSoftware,KiCad,Pcbnew,(5.1.0)-1*
G04 #@! TF.CreationDate,2020-11-17T16:37:49-05:00*
G04 #@! TF.ProjectId,T61_LC_Scanner,5436315f-4c43-45f5-9363-616e6e65722e,rev?*
G04 #@! TF.SameCoordinates,Original*
G04 #@! TF.FileFunction,Copper,L2,Bot*
G04 #@! TF.FilePolarity,Positive*
%FSLAX46Y46*%
G04 Gerber Fmt 4.6, Leading zero omitted, Abs format (unit mm)*
G04 Created by KiCad (PCBNEW (5.1.0)-1) date 2020-11-17 16:37:49*
%MOMM*%
%LPD*%
G04 APERTURE LIST*
%ADD10R,1.100000X0.300000*%
%ADD11R,1.320000X1.300000*%
%ADD12C,1.473200*%
%ADD13C,1.879600*%
%ADD14C,0.800000*%
%ADD15C,0.250000*%
%ADD16C,0.254000*%
G04 APERTURE END LIST*
D10*
X135474000Y-110070000D03*
X129974000Y-110070000D03*
X135474000Y-109570000D03*
X129974000Y-109570000D03*
X135474000Y-109070000D03*
X129974000Y-109070000D03*
X135474000Y-108570000D03*
X129974000Y-108570000D03*
X135474000Y-108070000D03*
X129974000Y-108070000D03*
X135474000Y-107570000D03*
X129974000Y-107570000D03*
X135474000Y-107070000D03*
X129974000Y-107070000D03*
X135474000Y-106570000D03*
X129974000Y-106570000D03*
X135474000Y-106070000D03*
X129974000Y-106070000D03*
X135474000Y-105570000D03*
X129974000Y-105570000D03*
X135474000Y-105070000D03*
X129974000Y-105070000D03*
X135474000Y-104570000D03*
X129974000Y-104570000D03*
X135474000Y-104070000D03*
X129974000Y-104070000D03*
X135474000Y-103570000D03*
X129974000Y-103570000D03*
X135474000Y-103070000D03*
X129974000Y-103070000D03*
X135474000Y-102570000D03*
X129974000Y-102570000D03*
X135474000Y-102070000D03*
X129974000Y-102070000D03*
X135474000Y-101570000D03*
X129974000Y-101570000D03*
X135474000Y-101070000D03*
X129974000Y-101070000D03*
X135474000Y-100570000D03*
X129974000Y-100570000D03*
D11*
X135364000Y-99370000D03*
X130084000Y-99370000D03*
X135364000Y-111270000D03*
X130084000Y-111270000D03*
D12*
X137638000Y-94091800D03*
X132558000Y-114411800D03*
X137638000Y-91551800D03*
X130018000Y-114411800D03*
X127478000Y-114411800D03*
X137638000Y-83931800D03*
X135098000Y-114411800D03*
X137638000Y-114411800D03*
X137638000Y-89011800D03*
X140178000Y-81391800D03*
X124938000Y-81391800D03*
X140178000Y-83931800D03*
X140178000Y-86471800D03*
X124938000Y-83931800D03*
X140178000Y-89011800D03*
X140178000Y-91551800D03*
X140178000Y-94091800D03*
X140178000Y-96631800D03*
X140178000Y-99171800D03*
X140178000Y-101711800D03*
X140178000Y-104251800D03*
X140178000Y-106791800D03*
X140178000Y-109331800D03*
X140178000Y-111871800D03*
X140178000Y-114411800D03*
X124938000Y-114411800D03*
X124938000Y-111871800D03*
X124938000Y-109331800D03*
X124938000Y-106791800D03*
X124938000Y-104251800D03*
X124938000Y-101711800D03*
X124938000Y-99171800D03*
X124938000Y-96631800D03*
X124938000Y-94091800D03*
X124938000Y-91551800D03*
X124938000Y-89011800D03*
X124938000Y-86471800D03*
D13*
X132650000Y-84800000D03*
D14*
X133050000Y-111000000D03*
X128854300Y-111300600D03*
X131250000Y-111700000D03*
X135200000Y-98050000D03*
X131622700Y-109748200D03*
X133750000Y-87900000D03*
X136200000Y-90300000D03*
X131788200Y-103956300D03*
X133144800Y-103884800D03*
X133156500Y-106193300D03*
X133410300Y-107208300D03*
X133926500Y-108258500D03*
X131870900Y-105399700D03*
X136777000Y-112570700D03*
X132455300Y-104636800D03*
X128845800Y-102870500D03*
X128501700Y-104195300D03*
X128099000Y-105150000D03*
X127503800Y-104227300D03*
X131388200Y-99485000D03*
X130483300Y-97602100D03*
X132765600Y-99476500D03*
X129000000Y-95850000D03*
X126450000Y-107800000D03*
X127550000Y-102000000D03*
X133127400Y-95650000D03*
X132670200Y-97887800D03*
X135750900Y-89105800D03*
X131084900Y-101137000D03*
D15*
X137638000Y-94091800D02*
X138385000Y-94838800D01*
X138385000Y-94838800D02*
X138385000Y-106726400D01*
X138385000Y-106726400D02*
X136541400Y-108570000D01*
X136541400Y-108570000D02*
X136301700Y-108570000D01*
X135474000Y-108570000D02*
X136301700Y-108570000D01*
X128854300Y-111300600D02*
X129115700Y-111300600D01*
X129115700Y-111300600D02*
X129146300Y-111270000D01*
X135720000Y-99370000D02*
X135364000Y-99370000D01*
X136301700Y-99951700D02*
X135720000Y-99370000D01*
X136301700Y-102542300D02*
X136301700Y-99951700D01*
X135474000Y-102570000D02*
X136274000Y-102570000D01*
X136274000Y-102570000D02*
X136301700Y-102542300D01*
X129974000Y-102070000D02*
X131110400Y-102070000D01*
X131110400Y-102070000D02*
X131380000Y-102070000D01*
X130311900Y-99370000D02*
X130084000Y-99370000D01*
X131770700Y-100828800D02*
X130311900Y-99370000D01*
X131770700Y-101629300D02*
X131770700Y-100828800D01*
X131110400Y-102070000D02*
X131330000Y-102070000D01*
X131330000Y-102070000D02*
X131770700Y-101629300D01*
X131770700Y-101629300D02*
X131770700Y-102070700D01*
X131770700Y-102070700D02*
X131600000Y-102241400D01*
X137638000Y-91551800D02*
X136153100Y-93036700D01*
X136153100Y-93036700D02*
X136153100Y-96283100D01*
X136153100Y-96283100D02*
X137579600Y-97709600D01*
X137579600Y-97709600D02*
X137579600Y-106363000D01*
X137579600Y-106363000D02*
X136372600Y-107570000D01*
X136372600Y-107570000D02*
X135474000Y-107570000D01*
X135474000Y-110070000D02*
X131944500Y-110070000D01*
X131944500Y-110070000D02*
X131622700Y-109748200D01*
X133750000Y-87900000D02*
X133750000Y-88650000D01*
X133750000Y-88650000D02*
X135400000Y-90300000D01*
X135400000Y-90300000D02*
X136200000Y-90300000D01*
X129974000Y-103070000D02*
X130901900Y-103070000D01*
X130901900Y-103070000D02*
X131788200Y-103956300D01*
X138908000Y-90281800D02*
X140178000Y-89011800D01*
X137220754Y-90281800D02*
X138908000Y-90281800D01*
X135474000Y-107070000D02*
X136301700Y-107070000D01*
X136301700Y-107070000D02*
X137174400Y-106197300D01*
X137174400Y-106197300D02*
X137174400Y-97873492D01*
X137174400Y-97873492D02*
X135750400Y-96449492D01*
X135750400Y-96449492D02*
X135750400Y-91752154D01*
X135750400Y-91752154D02*
X137220754Y-90281800D01*
X137078200Y-92821800D02*
X138908000Y-92821800D01*
X136555510Y-93344490D02*
X137078200Y-92821800D01*
X136555510Y-96116418D02*
X136555510Y-93344490D01*
X138908000Y-92821800D02*
X140178000Y-91551800D01*
X136444100Y-108070000D02*
X137982300Y-106531800D01*
X135474000Y-108070000D02*
X136444100Y-108070000D01*
X137982300Y-106531800D02*
X137982300Y-97542700D01*
X137982300Y-97542700D02*
X136613700Y-96174100D01*
X136613700Y-96174100D02*
X136613192Y-96174100D01*
X136613192Y-96174100D02*
X136555510Y-96116418D01*
X136621400Y-109070000D02*
X135474000Y-109070000D01*
X138787410Y-106903990D02*
X136621400Y-109070000D01*
X138787410Y-95482390D02*
X138787410Y-106903990D01*
X140178000Y-94091800D02*
X138787410Y-95482390D01*
X130801700Y-106070000D02*
X130809100Y-106077400D01*
X130809100Y-106077400D02*
X132151700Y-106077400D01*
X132151700Y-106077400D02*
X133144700Y-105084400D01*
X133144700Y-105084400D02*
X133144700Y-103884800D01*
X133144700Y-103884800D02*
X133144800Y-103884800D01*
X129974000Y-106070000D02*
X130801700Y-106070000D01*
X129974000Y-107070000D02*
X132279800Y-107070000D01*
X132279800Y-107070000D02*
X133156500Y-106193300D01*
X133410300Y-107208300D02*
X132548600Y-108070000D01*
X132548600Y-108070000D02*
X129974000Y-108070000D01*
X133926500Y-108258500D02*
X133115000Y-109070000D01*
X133115000Y-109070000D02*
X129974000Y-109070000D01*
X137993500Y-108976300D02*
X140178000Y-106791800D01*
X137993500Y-110346400D02*
X137993500Y-108976300D01*
X136142499Y-112197401D02*
X137993500Y-110346400D01*
X132929101Y-112197401D02*
X136142499Y-112197401D01*
X129974000Y-110070000D02*
X130801700Y-110070000D01*
X130801700Y-110070000D02*
X131415850Y-110684150D01*
X131415850Y-110684150D02*
X131784150Y-110684150D01*
X131784150Y-110684150D02*
X132415850Y-111315850D01*
X132415850Y-111315850D02*
X132415850Y-111684150D01*
X132415850Y-111684150D02*
X132929101Y-112197401D01*
X129974000Y-105070000D02*
X131541200Y-105070000D01*
X131541200Y-105070000D02*
X131870900Y-105399700D01*
X140178000Y-109331800D02*
X136939100Y-112570700D01*
X136939100Y-112570700D02*
X136777000Y-112570700D01*
X130801700Y-104070000D02*
X131368500Y-104636800D01*
X131368500Y-104636800D02*
X132455300Y-104636800D01*
X129974000Y-104070000D02*
X130801700Y-104070000D01*
X129146300Y-102570000D02*
X128845800Y-102870500D01*
X129974000Y-102570000D02*
X129146300Y-102570000D01*
X129146300Y-103570000D02*
X128521000Y-104195300D01*
X128521000Y-104195300D02*
X128501700Y-104195300D01*
X129974000Y-103570000D02*
X129146300Y-103570000D01*
X129146300Y-104570000D02*
X128566300Y-105150000D01*
X128566300Y-105150000D02*
X128099000Y-105150000D01*
X129974000Y-104570000D02*
X129146300Y-104570000D01*
X127503800Y-104227300D02*
X127421300Y-104309800D01*
X127421300Y-104309800D02*
X127421300Y-105430700D01*
X127421300Y-105430700D02*
X127818300Y-105827700D01*
X127818300Y-105827700D02*
X128888600Y-105827700D01*
X128888600Y-105827700D02*
X129146300Y-105570000D01*
X129146300Y-101570000D02*
X127503800Y-103212500D01*
X127503800Y-103212500D02*
X127503800Y-104227300D01*
X129974000Y-105570000D02*
X129146300Y-105570000D01*
X129974000Y-101570000D02*
X129146300Y-101570000D01*
X124938000Y-104251800D02*
X124938000Y-105233800D01*
X124938000Y-105233800D02*
X129146300Y-109442100D01*
X129146300Y-109442100D02*
X129146300Y-109570000D01*
X129974000Y-109570000D02*
X129146300Y-109570000D01*
X124938000Y-101711800D02*
X125952400Y-102726200D01*
X125952400Y-102726200D02*
X125952500Y-102726200D01*
X125952500Y-102726200D02*
X125952500Y-105670700D01*
X125952500Y-105670700D02*
X128851800Y-108570000D01*
X128851800Y-108570000D02*
X129146300Y-108570000D01*
X129974000Y-108570000D02*
X129146300Y-108570000D01*
X124938000Y-99171800D02*
X126404000Y-100637800D01*
X126404000Y-100637800D02*
X126404000Y-105552600D01*
X126404000Y-105552600D02*
X128421400Y-107570000D01*
X128421400Y-107570000D02*
X129974000Y-107570000D01*
X124938000Y-96631800D02*
X126806800Y-98500600D01*
X126806800Y-98500600D02*
X126806900Y-98500600D01*
X126806900Y-98500600D02*
X126806900Y-105385900D01*
X126806900Y-105385900D02*
X127991000Y-106570000D01*
X127991000Y-106570000D02*
X129146300Y-106570000D01*
X129974000Y-106570000D02*
X129146300Y-106570000D01*
X134646300Y-109570000D02*
X134646300Y-107262100D01*
X134646300Y-107262100D02*
X133840800Y-106456600D01*
X133840800Y-106456600D02*
X133840800Y-102820800D01*
X133840800Y-102820800D02*
X132372700Y-101352700D01*
X132372700Y-101352700D02*
X132372700Y-100611900D01*
X132372700Y-100611900D02*
X131388200Y-99627400D01*
X131388200Y-99627400D02*
X131388200Y-99485000D01*
X135474000Y-109570000D02*
X134646300Y-109570000D01*
X134646300Y-106570000D02*
X134243600Y-106167300D01*
X134243600Y-106167300D02*
X134243600Y-102255600D01*
X134243600Y-102255600D02*
X132848700Y-100860700D01*
X132848700Y-100860700D02*
X132848700Y-100518200D01*
X132848700Y-100518200D02*
X132065900Y-99735400D01*
X132065900Y-99735400D02*
X132065900Y-99184700D01*
X132065900Y-99184700D02*
X130483300Y-97602100D01*
X135474000Y-106570000D02*
X134646300Y-106570000D01*
X135474000Y-106070000D02*
X134881300Y-106070000D01*
X134881300Y-106070000D02*
X134646300Y-105835000D01*
X134646300Y-105835000D02*
X134646300Y-102088700D01*
X134646300Y-102088700D02*
X133520900Y-100963300D01*
X133520900Y-100963300D02*
X133520900Y-100544600D01*
X133520900Y-100544600D02*
X132765600Y-99789300D01*
X132765600Y-99789300D02*
X132765600Y-99476500D01*
X128738100Y-95588100D02*
X129000000Y-95850000D01*
X128738100Y-92811900D02*
X128738100Y-95588100D01*
X124938000Y-89011800D02*
X128738100Y-92811900D01*
X126450000Y-109898854D02*
X126450000Y-107800000D01*
X126450000Y-111100000D02*
X126450000Y-109898854D01*
X128598101Y-113248101D02*
X126450000Y-111100000D01*
X140178000Y-114411800D02*
X139014301Y-113248101D01*
X139014301Y-113248101D02*
X128598101Y-113248101D01*
X128980000Y-100570000D02*
X129974000Y-100570000D01*
X127550000Y-102000000D02*
X128980000Y-100570000D01*
X134646300Y-100570000D02*
X134646300Y-100417800D01*
X134646300Y-100417800D02*
X133981700Y-99753200D01*
X133981700Y-99753200D02*
X133981700Y-97860100D01*
X133981700Y-97860100D02*
X133817100Y-97695500D01*
X135474000Y-100570000D02*
X134646300Y-100570000D01*
X133127400Y-95650000D02*
X133127400Y-96877400D01*
X133817100Y-97567100D02*
X133817100Y-97695500D01*
X133127400Y-96877400D02*
X133817100Y-97567100D01*
X135474000Y-101070000D02*
X134471700Y-101070000D01*
X134471700Y-101070000D02*
X134142600Y-100740900D01*
X134142600Y-100740900D02*
X134142600Y-100483800D01*
X134142600Y-100483800D02*
X133443400Y-99784600D01*
X133443400Y-99784600D02*
X133443400Y-98661000D01*
X133443400Y-98661000D02*
X132670200Y-97887800D01*
X132650000Y-88800000D02*
X132650000Y-84800000D01*
X135474000Y-105570000D02*
X136301700Y-105570000D01*
X136301700Y-105570000D02*
X136738100Y-105133600D01*
X136738100Y-105133600D02*
X136738100Y-98006284D01*
X136738100Y-98006284D02*
X135347990Y-96616174D01*
X135347990Y-96616174D02*
X135347990Y-91497990D01*
X135347990Y-91497990D02*
X132650000Y-88800000D01*
X130801700Y-101070000D02*
X131017900Y-101070000D01*
X131017900Y-101070000D02*
X131084900Y-101137000D01*
X137638000Y-83931800D02*
X135750900Y-85818900D01*
X135750900Y-85818900D02*
X135750900Y-89105800D01*
X129974000Y-101070000D02*
X130801700Y-101070000D01*
D16*
G36*
X133779109Y-114011719D02*
G01*
X133726400Y-114276709D01*
X133726400Y-114546891D01*
X133779109Y-114811881D01*
X133841125Y-114961600D01*
X131274875Y-114961600D01*
X131336891Y-114811881D01*
X131389600Y-114546891D01*
X131389600Y-114276709D01*
X131336891Y-114011719D01*
X131335392Y-114008101D01*
X133780608Y-114008101D01*
X133779109Y-114011719D01*
X133779109Y-114011719D01*
G37*
X133779109Y-114011719D02*
X133726400Y-114276709D01*
X133726400Y-114546891D01*
X133779109Y-114811881D01*
X133841125Y-114961600D01*
X131274875Y-114961600D01*
X131336891Y-114811881D01*
X131389600Y-114546891D01*
X131389600Y-114276709D01*
X131336891Y-114011719D01*
X131335392Y-114008101D01*
X133780608Y-114008101D01*
X133779109Y-114011719D01*
G36*
X128418595Y-109789197D02*
G01*
X128440754Y-109862247D01*
X128511326Y-109994276D01*
X128606299Y-110110001D01*
X128722024Y-110204974D01*
X128787917Y-110240195D01*
X128798188Y-110344482D01*
X128834498Y-110464180D01*
X128893463Y-110574494D01*
X128972815Y-110671185D01*
X129069506Y-110750537D01*
X129179820Y-110809502D01*
X129299518Y-110845812D01*
X129424000Y-110858072D01*
X130514971Y-110858072D01*
X130852050Y-111195152D01*
X130875849Y-111224151D01*
X130991574Y-111319124D01*
X131123603Y-111389696D01*
X131266864Y-111433153D01*
X131378517Y-111444150D01*
X131378526Y-111444150D01*
X131415849Y-111447826D01*
X131453172Y-111444150D01*
X131469349Y-111444150D01*
X131655850Y-111630652D01*
X131655850Y-111646828D01*
X131652174Y-111684150D01*
X131655850Y-111721472D01*
X131655850Y-111721483D01*
X131666847Y-111833136D01*
X131710304Y-111976397D01*
X131780876Y-112108426D01*
X131875849Y-112224151D01*
X131904851Y-112247952D01*
X132144999Y-112488101D01*
X128912903Y-112488101D01*
X127210000Y-110785199D01*
X127210000Y-108580602D01*
X128418595Y-109789197D01*
X128418595Y-109789197D01*
G37*
X128418595Y-109789197D02*
X128440754Y-109862247D01*
X128511326Y-109994276D01*
X128606299Y-110110001D01*
X128722024Y-110204974D01*
X128787917Y-110240195D01*
X128798188Y-110344482D01*
X128834498Y-110464180D01*
X128893463Y-110574494D01*
X128972815Y-110671185D01*
X129069506Y-110750537D01*
X129179820Y-110809502D01*
X129299518Y-110845812D01*
X129424000Y-110858072D01*
X130514971Y-110858072D01*
X130852050Y-111195152D01*
X130875849Y-111224151D01*
X130991574Y-111319124D01*
X131123603Y-111389696D01*
X131266864Y-111433153D01*
X131378517Y-111444150D01*
X131378526Y-111444150D01*
X131415849Y-111447826D01*
X131453172Y-111444150D01*
X131469349Y-111444150D01*
X131655850Y-111630652D01*
X131655850Y-111646828D01*
X131652174Y-111684150D01*
X131655850Y-111721472D01*
X131655850Y-111721483D01*
X131666847Y-111833136D01*
X131710304Y-111976397D01*
X131780876Y-112108426D01*
X131875849Y-112224151D01*
X131904851Y-112247952D01*
X132144999Y-112488101D01*
X128912903Y-112488101D01*
X127210000Y-110785199D01*
X127210000Y-108580602D01*
X128418595Y-109789197D01*
G36*
X137233500Y-110031598D02*
G01*
X135827698Y-111437401D01*
X133243903Y-111437401D01*
X133175850Y-111369349D01*
X133175850Y-111353175D01*
X133179526Y-111315850D01*
X133175850Y-111278525D01*
X133175850Y-111278517D01*
X133164853Y-111166864D01*
X133121396Y-111023603D01*
X133050824Y-110891574D01*
X133000292Y-110830000D01*
X134747393Y-110830000D01*
X134799518Y-110845812D01*
X134924000Y-110858072D01*
X136024000Y-110858072D01*
X136148482Y-110845812D01*
X136268180Y-110809502D01*
X136378494Y-110750537D01*
X136475185Y-110671185D01*
X136554537Y-110574494D01*
X136613502Y-110464180D01*
X136649812Y-110344482D01*
X136662072Y-110220000D01*
X136662072Y-109920000D01*
X136653261Y-109830538D01*
X136658722Y-109830000D01*
X136658733Y-109830000D01*
X136770386Y-109819003D01*
X136913647Y-109775546D01*
X137045676Y-109704974D01*
X137161401Y-109610001D01*
X137185204Y-109580997D01*
X137233501Y-109532700D01*
X137233500Y-110031598D01*
X137233500Y-110031598D01*
G37*
X137233500Y-110031598D02*
X135827698Y-111437401D01*
X133243903Y-111437401D01*
X133175850Y-111369349D01*
X133175850Y-111353175D01*
X133179526Y-111315850D01*
X133175850Y-111278525D01*
X133175850Y-111278517D01*
X133164853Y-111166864D01*
X133121396Y-111023603D01*
X133050824Y-110891574D01*
X133000292Y-110830000D01*
X134747393Y-110830000D01*
X134799518Y-110845812D01*
X134924000Y-110858072D01*
X136024000Y-110858072D01*
X136148482Y-110845812D01*
X136268180Y-110809502D01*
X136378494Y-110750537D01*
X136475185Y-110671185D01*
X136554537Y-110574494D01*
X136613502Y-110464180D01*
X136649812Y-110344482D01*
X136662072Y-110220000D01*
X136662072Y-109920000D01*
X136653261Y-109830538D01*
X136658722Y-109830000D01*
X136658733Y-109830000D01*
X136770386Y-109819003D01*
X136913647Y-109775546D01*
X137045676Y-109704974D01*
X137161401Y-109610001D01*
X137185204Y-109580997D01*
X137233501Y-109532700D01*
X137233500Y-110031598D01*
G36*
X131832699Y-101892701D02*
G01*
X131861703Y-101916504D01*
X132837153Y-102891955D01*
X132654544Y-102967595D01*
X132485026Y-103080863D01*
X132427324Y-103138565D01*
X132278456Y-103039095D01*
X132090098Y-102961074D01*
X131890139Y-102921300D01*
X131828002Y-102921300D01*
X131465703Y-102559002D01*
X131441901Y-102529999D01*
X131326176Y-102435026D01*
X131194147Y-102364454D01*
X131155445Y-102352714D01*
X131149812Y-102295518D01*
X131113502Y-102175820D01*
X131111460Y-102172000D01*
X131186839Y-102172000D01*
X131386798Y-102132226D01*
X131575156Y-102054205D01*
X131744674Y-101940937D01*
X131814764Y-101870847D01*
X131832699Y-101892701D01*
X131832699Y-101892701D01*
G37*
X131832699Y-101892701D02*
X131861703Y-101916504D01*
X132837153Y-102891955D01*
X132654544Y-102967595D01*
X132485026Y-103080863D01*
X132427324Y-103138565D01*
X132278456Y-103039095D01*
X132090098Y-102961074D01*
X131890139Y-102921300D01*
X131828002Y-102921300D01*
X131465703Y-102559002D01*
X131441901Y-102529999D01*
X131326176Y-102435026D01*
X131194147Y-102364454D01*
X131155445Y-102352714D01*
X131149812Y-102295518D01*
X131113502Y-102175820D01*
X131111460Y-102172000D01*
X131186839Y-102172000D01*
X131386798Y-102132226D01*
X131575156Y-102054205D01*
X131744674Y-101940937D01*
X131814764Y-101870847D01*
X131832699Y-101892701D01*
G36*
X138859109Y-80991719D02*
G01*
X138806400Y-81256709D01*
X138806400Y-81526891D01*
X138859109Y-81791881D01*
X138962503Y-82041496D01*
X139112608Y-82266144D01*
X139303656Y-82457192D01*
X139528304Y-82607297D01*
X139777919Y-82710691D01*
X140042909Y-82763400D01*
X140313091Y-82763400D01*
X140578081Y-82710691D01*
X140732441Y-82646753D01*
X140732441Y-85216847D01*
X140578081Y-85152909D01*
X140313091Y-85100200D01*
X140042909Y-85100200D01*
X139777919Y-85152909D01*
X139528304Y-85256303D01*
X139303656Y-85406408D01*
X139112608Y-85597456D01*
X138962503Y-85822104D01*
X138859109Y-86071719D01*
X138806400Y-86336709D01*
X138806400Y-86606891D01*
X138859109Y-86871881D01*
X138962503Y-87121496D01*
X139112608Y-87346144D01*
X139303656Y-87537192D01*
X139528304Y-87687297D01*
X139659886Y-87741800D01*
X139528304Y-87796303D01*
X139303656Y-87946408D01*
X139112608Y-88137456D01*
X138962503Y-88362104D01*
X138908000Y-88493686D01*
X138853497Y-88362104D01*
X138703392Y-88137456D01*
X138512344Y-87946408D01*
X138287696Y-87796303D01*
X138038081Y-87692909D01*
X137773091Y-87640200D01*
X137502909Y-87640200D01*
X137237919Y-87692909D01*
X136988304Y-87796303D01*
X136763656Y-87946408D01*
X136572608Y-88137456D01*
X136510900Y-88229809D01*
X136510900Y-86133701D01*
X137368031Y-85276571D01*
X137502909Y-85303400D01*
X137773091Y-85303400D01*
X138038081Y-85250691D01*
X138287696Y-85147297D01*
X138512344Y-84997192D01*
X138703392Y-84806144D01*
X138853497Y-84581496D01*
X138956891Y-84331881D01*
X139009600Y-84066891D01*
X139009600Y-83796709D01*
X138956891Y-83531719D01*
X138853497Y-83282104D01*
X138703392Y-83057456D01*
X138512344Y-82866408D01*
X138287696Y-82716303D01*
X138038081Y-82612909D01*
X137773091Y-82560200D01*
X137502909Y-82560200D01*
X137237919Y-82612909D01*
X136988304Y-82716303D01*
X136763656Y-82866408D01*
X136572608Y-83057456D01*
X136422503Y-83282104D01*
X136319109Y-83531719D01*
X136266400Y-83796709D01*
X136266400Y-84066891D01*
X136293229Y-84201769D01*
X135239902Y-85255097D01*
X135210899Y-85278899D01*
X135155771Y-85346074D01*
X135115926Y-85394624D01*
X135045355Y-85526653D01*
X135045354Y-85526654D01*
X135001897Y-85669915D01*
X134990900Y-85781568D01*
X134990900Y-85781578D01*
X134987224Y-85818900D01*
X134990900Y-85856223D01*
X134990901Y-88402088D01*
X134946963Y-88446026D01*
X134833695Y-88615544D01*
X134820998Y-88646197D01*
X134626290Y-88451489D01*
X134667205Y-88390256D01*
X134745226Y-88201898D01*
X134785000Y-88001939D01*
X134785000Y-87798061D01*
X134745226Y-87598102D01*
X134667205Y-87409744D01*
X134553937Y-87240226D01*
X134409774Y-87096063D01*
X134240256Y-86982795D01*
X134051898Y-86904774D01*
X133851939Y-86865000D01*
X133648061Y-86865000D01*
X133448102Y-86904774D01*
X133410000Y-86920556D01*
X133410000Y-86186181D01*
X133653877Y-86023227D01*
X133873227Y-85803877D01*
X134045570Y-85545948D01*
X134164282Y-85259352D01*
X134224800Y-84955104D01*
X134224800Y-84644896D01*
X134164282Y-84340648D01*
X134045570Y-84054052D01*
X133873227Y-83796123D01*
X133653877Y-83576773D01*
X133395948Y-83404430D01*
X133109352Y-83285718D01*
X132805104Y-83225200D01*
X132494896Y-83225200D01*
X132190648Y-83285718D01*
X131904052Y-83404430D01*
X131646123Y-83576773D01*
X131426773Y-83796123D01*
X131254430Y-84054052D01*
X131135718Y-84340648D01*
X131075200Y-84644896D01*
X131075200Y-84955104D01*
X131135718Y-85259352D01*
X131254430Y-85545948D01*
X131426773Y-85803877D01*
X131646123Y-86023227D01*
X131890001Y-86186181D01*
X131890000Y-88762677D01*
X131886324Y-88800000D01*
X131890000Y-88837322D01*
X131890000Y-88837332D01*
X131900997Y-88948985D01*
X131920052Y-89011801D01*
X131944454Y-89092246D01*
X132015026Y-89224276D01*
X132048448Y-89265000D01*
X132109999Y-89340001D01*
X132139003Y-89363804D01*
X134587991Y-91812793D01*
X134587990Y-96578851D01*
X134584314Y-96616174D01*
X134587990Y-96653496D01*
X134587990Y-96653506D01*
X134598987Y-96765159D01*
X134633716Y-96879646D01*
X134642444Y-96908420D01*
X134713016Y-97040450D01*
X134741064Y-97074626D01*
X134807989Y-97156175D01*
X134836992Y-97179977D01*
X135978101Y-98321088D01*
X135978101Y-99781928D01*
X135085230Y-99781928D01*
X134741700Y-99438399D01*
X134741700Y-97897433D01*
X134745377Y-97860100D01*
X134730703Y-97711114D01*
X134709458Y-97641077D01*
X134687246Y-97567853D01*
X134616674Y-97435824D01*
X134544973Y-97348456D01*
X134522646Y-97274853D01*
X134520706Y-97271224D01*
X134452074Y-97142823D01*
X134380899Y-97056097D01*
X134357101Y-97027099D01*
X134328104Y-97003302D01*
X133887400Y-96562599D01*
X133887400Y-96353711D01*
X133931337Y-96309774D01*
X134044605Y-96140256D01*
X134122626Y-95951898D01*
X134162400Y-95751939D01*
X134162400Y-95548061D01*
X134122626Y-95348102D01*
X134044605Y-95159744D01*
X133931337Y-94990226D01*
X133787174Y-94846063D01*
X133617656Y-94732795D01*
X133429298Y-94654774D01*
X133229339Y-94615000D01*
X133025461Y-94615000D01*
X132825502Y-94654774D01*
X132637144Y-94732795D01*
X132467626Y-94846063D01*
X132323463Y-94990226D01*
X132210195Y-95159744D01*
X132132174Y-95348102D01*
X132092400Y-95548061D01*
X132092400Y-95751939D01*
X132132174Y-95951898D01*
X132210195Y-96140256D01*
X132323463Y-96309774D01*
X132367401Y-96353712D01*
X132367401Y-96840068D01*
X132363724Y-96877400D01*
X132365339Y-96893801D01*
X132179944Y-96970595D01*
X132010426Y-97083863D01*
X131866263Y-97228026D01*
X131752995Y-97397544D01*
X131674974Y-97585902D01*
X131652896Y-97696895D01*
X131518300Y-97562298D01*
X131518300Y-97500161D01*
X131478526Y-97300202D01*
X131400505Y-97111844D01*
X131287237Y-96942326D01*
X131143074Y-96798163D01*
X130973556Y-96684895D01*
X130785198Y-96606874D01*
X130585239Y-96567100D01*
X130381361Y-96567100D01*
X130181402Y-96606874D01*
X129993044Y-96684895D01*
X129823526Y-96798163D01*
X129679363Y-96942326D01*
X129566095Y-97111844D01*
X129488074Y-97300202D01*
X129448300Y-97500161D01*
X129448300Y-97704039D01*
X129488074Y-97903998D01*
X129566095Y-98092356D01*
X129679363Y-98261874D01*
X129823526Y-98406037D01*
X129993044Y-98519305D01*
X130181402Y-98597326D01*
X130381361Y-98637100D01*
X130443498Y-98637100D01*
X130607944Y-98801545D01*
X130584263Y-98825226D01*
X130470995Y-98994744D01*
X130392974Y-99183102D01*
X130353200Y-99383061D01*
X130353200Y-99586939D01*
X130391985Y-99781928D01*
X129424000Y-99781928D01*
X129299518Y-99794188D01*
X129247393Y-99810000D01*
X129017322Y-99810000D01*
X128979999Y-99806324D01*
X128942676Y-99810000D01*
X128942667Y-99810000D01*
X128831014Y-99820997D01*
X128687753Y-99864454D01*
X128555724Y-99935026D01*
X128555722Y-99935027D01*
X128555723Y-99935027D01*
X128468996Y-100006201D01*
X128468992Y-100006205D01*
X128439999Y-100029999D01*
X128416205Y-100058992D01*
X127566900Y-100908298D01*
X127566900Y-98537933D01*
X127570577Y-98500600D01*
X127563679Y-98430559D01*
X127555903Y-98351614D01*
X127512446Y-98208353D01*
X127441874Y-98076324D01*
X127346901Y-97960599D01*
X127317346Y-97936344D01*
X126282771Y-96901770D01*
X126309600Y-96766891D01*
X126309600Y-96496709D01*
X126256891Y-96231719D01*
X126153497Y-95982104D01*
X126003392Y-95757456D01*
X125812344Y-95566408D01*
X125587696Y-95416303D01*
X125456114Y-95361800D01*
X125587696Y-95307297D01*
X125812344Y-95157192D01*
X126003392Y-94966144D01*
X126153497Y-94741496D01*
X126256891Y-94491881D01*
X126309600Y-94226891D01*
X126309600Y-93956709D01*
X126256891Y-93691719D01*
X126153497Y-93442104D01*
X126003392Y-93217456D01*
X125812344Y-93026408D01*
X125587696Y-92876303D01*
X125456114Y-92821800D01*
X125587696Y-92767297D01*
X125812344Y-92617192D01*
X126003392Y-92426144D01*
X126153497Y-92201496D01*
X126256891Y-91951881D01*
X126309600Y-91686891D01*
X126309600Y-91458202D01*
X127978100Y-93126702D01*
X127978101Y-95550768D01*
X127974424Y-95588100D01*
X127978101Y-95625433D01*
X127981840Y-95663398D01*
X127965000Y-95748061D01*
X127965000Y-95951939D01*
X128004774Y-96151898D01*
X128082795Y-96340256D01*
X128196063Y-96509774D01*
X128340226Y-96653937D01*
X128509744Y-96767205D01*
X128698102Y-96845226D01*
X128898061Y-96885000D01*
X129101939Y-96885000D01*
X129301898Y-96845226D01*
X129490256Y-96767205D01*
X129659774Y-96653937D01*
X129803937Y-96509774D01*
X129917205Y-96340256D01*
X129995226Y-96151898D01*
X130035000Y-95951939D01*
X130035000Y-95748061D01*
X129995226Y-95548102D01*
X129917205Y-95359744D01*
X129803937Y-95190226D01*
X129659774Y-95046063D01*
X129498100Y-94938036D01*
X129498100Y-92849223D01*
X129501776Y-92811900D01*
X129498100Y-92774577D01*
X129498100Y-92774567D01*
X129487103Y-92662914D01*
X129443646Y-92519653D01*
X129380612Y-92401726D01*
X129373074Y-92387623D01*
X129301899Y-92300897D01*
X129278101Y-92271899D01*
X129249104Y-92248102D01*
X126282771Y-89281770D01*
X126309600Y-89146891D01*
X126309600Y-88876709D01*
X126256891Y-88611719D01*
X126153497Y-88362104D01*
X126003392Y-88137456D01*
X125812344Y-87946408D01*
X125587696Y-87796303D01*
X125456114Y-87741800D01*
X125587696Y-87687297D01*
X125812344Y-87537192D01*
X126003392Y-87346144D01*
X126153497Y-87121496D01*
X126256891Y-86871881D01*
X126309600Y-86606891D01*
X126309600Y-86336709D01*
X126256891Y-86071719D01*
X126153497Y-85822104D01*
X126003392Y-85597456D01*
X125812344Y-85406408D01*
X125587696Y-85256303D01*
X125456114Y-85201800D01*
X125587696Y-85147297D01*
X125812344Y-84997192D01*
X126003392Y-84806144D01*
X126153497Y-84581496D01*
X126256891Y-84331881D01*
X126309600Y-84066891D01*
X126309600Y-83796709D01*
X126256891Y-83531719D01*
X126153497Y-83282104D01*
X126003392Y-83057456D01*
X125812344Y-82866408D01*
X125587696Y-82716303D01*
X125338081Y-82612909D01*
X125073091Y-82560200D01*
X124802909Y-82560200D01*
X124537919Y-82612909D01*
X124377520Y-82679348D01*
X124377520Y-80813600D01*
X138932888Y-80813600D01*
X138859109Y-80991719D01*
X138859109Y-80991719D01*
G37*
X138859109Y-80991719D02*
X138806400Y-81256709D01*
X138806400Y-81526891D01*
X138859109Y-81791881D01*
X138962503Y-82041496D01*
X139112608Y-82266144D01*
X139303656Y-82457192D01*
X139528304Y-82607297D01*
X139777919Y-82710691D01*
X140042909Y-82763400D01*
X140313091Y-82763400D01*
X140578081Y-82710691D01*
X140732441Y-82646753D01*
X140732441Y-85216847D01*
X140578081Y-85152909D01*
X140313091Y-85100200D01*
X140042909Y-85100200D01*
X139777919Y-85152909D01*
X139528304Y-85256303D01*
X139303656Y-85406408D01*
X139112608Y-85597456D01*
X138962503Y-85822104D01*
X138859109Y-86071719D01*
X138806400Y-86336709D01*
X138806400Y-86606891D01*
X138859109Y-86871881D01*
X138962503Y-87121496D01*
X139112608Y-87346144D01*
X139303656Y-87537192D01*
X139528304Y-87687297D01*
X139659886Y-87741800D01*
X139528304Y-87796303D01*
X139303656Y-87946408D01*
X139112608Y-88137456D01*
X138962503Y-88362104D01*
X138908000Y-88493686D01*
X138853497Y-88362104D01*
X138703392Y-88137456D01*
X138512344Y-87946408D01*
X138287696Y-87796303D01*
X138038081Y-87692909D01*
X137773091Y-87640200D01*
X137502909Y-87640200D01*
X137237919Y-87692909D01*
X136988304Y-87796303D01*
X136763656Y-87946408D01*
X136572608Y-88137456D01*
X136510900Y-88229809D01*
X136510900Y-86133701D01*
X137368031Y-85276571D01*
X137502909Y-85303400D01*
X137773091Y-85303400D01*
X138038081Y-85250691D01*
X138287696Y-85147297D01*
X138512344Y-84997192D01*
X138703392Y-84806144D01*
X138853497Y-84581496D01*
X138956891Y-84331881D01*
X139009600Y-84066891D01*
X139009600Y-83796709D01*
X138956891Y-83531719D01*
X138853497Y-83282104D01*
X138703392Y-83057456D01*
X138512344Y-82866408D01*
X138287696Y-82716303D01*
X138038081Y-82612909D01*
X137773091Y-82560200D01*
X137502909Y-82560200D01*
X137237919Y-82612909D01*
X136988304Y-82716303D01*
X136763656Y-82866408D01*
X136572608Y-83057456D01*
X136422503Y-83282104D01*
X136319109Y-83531719D01*
X136266400Y-83796709D01*
X136266400Y-84066891D01*
X136293229Y-84201769D01*
X135239902Y-85255097D01*
X135210899Y-85278899D01*
X135155771Y-85346074D01*
X135115926Y-85394624D01*
X135045355Y-85526653D01*
X135045354Y-85526654D01*
X135001897Y-85669915D01*
X134990900Y-85781568D01*
X134990900Y-85781578D01*
X134987224Y-85818900D01*
X134990900Y-85856223D01*
X134990901Y-88402088D01*
X134946963Y-88446026D01*
X134833695Y-88615544D01*
X134820998Y-88646197D01*
X134626290Y-88451489D01*
X134667205Y-88390256D01*
X134745226Y-88201898D01*
X134785000Y-88001939D01*
X134785000Y-87798061D01*
X134745226Y-87598102D01*
X134667205Y-87409744D01*
X134553937Y-87240226D01*
X134409774Y-87096063D01*
X134240256Y-86982795D01*
X134051898Y-86904774D01*
X133851939Y-86865000D01*
X133648061Y-86865000D01*
X133448102Y-86904774D01*
X133410000Y-86920556D01*
X133410000Y-86186181D01*
X133653877Y-86023227D01*
X133873227Y-85803877D01*
X134045570Y-85545948D01*
X134164282Y-85259352D01*
X134224800Y-84955104D01*
X134224800Y-84644896D01*
X134164282Y-84340648D01*
X134045570Y-84054052D01*
X133873227Y-83796123D01*
X133653877Y-83576773D01*
X133395948Y-83404430D01*
X133109352Y-83285718D01*
X132805104Y-83225200D01*
X132494896Y-83225200D01*
X132190648Y-83285718D01*
X131904052Y-83404430D01*
X131646123Y-83576773D01*
X131426773Y-83796123D01*
X131254430Y-84054052D01*
X131135718Y-84340648D01*
X131075200Y-84644896D01*
X131075200Y-84955104D01*
X131135718Y-85259352D01*
X131254430Y-85545948D01*
X131426773Y-85803877D01*
X131646123Y-86023227D01*
X131890001Y-86186181D01*
X131890000Y-88762677D01*
X131886324Y-88800000D01*
X131890000Y-88837322D01*
X131890000Y-88837332D01*
X131900997Y-88948985D01*
X131920052Y-89011801D01*
X131944454Y-89092246D01*
X132015026Y-89224276D01*
X132048448Y-89265000D01*
X132109999Y-89340001D01*
X132139003Y-89363804D01*
X134587991Y-91812793D01*
X134587990Y-96578851D01*
X134584314Y-96616174D01*
X134587990Y-96653496D01*
X134587990Y-96653506D01*
X134598987Y-96765159D01*
X134633716Y-96879646D01*
X134642444Y-96908420D01*
X134713016Y-97040450D01*
X134741064Y-97074626D01*
X134807989Y-97156175D01*
X134836992Y-97179977D01*
X135978101Y-98321088D01*
X135978101Y-99781928D01*
X135085230Y-99781928D01*
X134741700Y-99438399D01*
X134741700Y-97897433D01*
X134745377Y-97860100D01*
X134730703Y-97711114D01*
X134709458Y-97641077D01*
X134687246Y-97567853D01*
X134616674Y-97435824D01*
X134544973Y-97348456D01*
X134522646Y-97274853D01*
X134520706Y-97271224D01*
X134452074Y-97142823D01*
X134380899Y-97056097D01*
X134357101Y-97027099D01*
X134328104Y-97003302D01*
X133887400Y-96562599D01*
X133887400Y-96353711D01*
X133931337Y-96309774D01*
X134044605Y-96140256D01*
X134122626Y-95951898D01*
X134162400Y-95751939D01*
X134162400Y-95548061D01*
X134122626Y-95348102D01*
X134044605Y-95159744D01*
X133931337Y-94990226D01*
X133787174Y-94846063D01*
X133617656Y-94732795D01*
X133429298Y-94654774D01*
X133229339Y-94615000D01*
X133025461Y-94615000D01*
X132825502Y-94654774D01*
X132637144Y-94732795D01*
X132467626Y-94846063D01*
X132323463Y-94990226D01*
X132210195Y-95159744D01*
X132132174Y-95348102D01*
X132092400Y-95548061D01*
X132092400Y-95751939D01*
X132132174Y-95951898D01*
X132210195Y-96140256D01*
X132323463Y-96309774D01*
X132367401Y-96353712D01*
X132367401Y-96840068D01*
X132363724Y-96877400D01*
X132365339Y-96893801D01*
X132179944Y-96970595D01*
X132010426Y-97083863D01*
X131866263Y-97228026D01*
X131752995Y-97397544D01*
X131674974Y-97585902D01*
X131652896Y-97696895D01*
X131518300Y-97562298D01*
X131518300Y-97500161D01*
X131478526Y-97300202D01*
X131400505Y-97111844D01*
X131287237Y-96942326D01*
X131143074Y-96798163D01*
X130973556Y-96684895D01*
X130785198Y-96606874D01*
X130585239Y-96567100D01*
X130381361Y-96567100D01*
X130181402Y-96606874D01*
X129993044Y-96684895D01*
X129823526Y-96798163D01*
X129679363Y-96942326D01*
X129566095Y-97111844D01*
X129488074Y-97300202D01*
X129448300Y-97500161D01*
X129448300Y-97704039D01*
X129488074Y-97903998D01*
X129566095Y-98092356D01*
X129679363Y-98261874D01*
X129823526Y-98406037D01*
X129993044Y-98519305D01*
X130181402Y-98597326D01*
X130381361Y-98637100D01*
X130443498Y-98637100D01*
X130607944Y-98801545D01*
X130584263Y-98825226D01*
X130470995Y-98994744D01*
X130392974Y-99183102D01*
X130353200Y-99383061D01*
X130353200Y-99586939D01*
X130391985Y-99781928D01*
X129424000Y-99781928D01*
X129299518Y-99794188D01*
X129247393Y-99810000D01*
X129017322Y-99810000D01*
X128979999Y-99806324D01*
X128942676Y-99810000D01*
X128942667Y-99810000D01*
X128831014Y-99820997D01*
X128687753Y-99864454D01*
X128555724Y-99935026D01*
X128555722Y-99935027D01*
X128555723Y-99935027D01*
X128468996Y-100006201D01*
X128468992Y-100006205D01*
X128439999Y-100029999D01*
X128416205Y-100058992D01*
X127566900Y-100908298D01*
X127566900Y-98537933D01*
X127570577Y-98500600D01*
X127563679Y-98430559D01*
X127555903Y-98351614D01*
X127512446Y-98208353D01*
X127441874Y-98076324D01*
X127346901Y-97960599D01*
X127317346Y-97936344D01*
X126282771Y-96901770D01*
X126309600Y-96766891D01*
X126309600Y-96496709D01*
X126256891Y-96231719D01*
X126153497Y-95982104D01*
X126003392Y-95757456D01*
X125812344Y-95566408D01*
X125587696Y-95416303D01*
X125456114Y-95361800D01*
X125587696Y-95307297D01*
X125812344Y-95157192D01*
X126003392Y-94966144D01*
X126153497Y-94741496D01*
X126256891Y-94491881D01*
X126309600Y-94226891D01*
X126309600Y-93956709D01*
X126256891Y-93691719D01*
X126153497Y-93442104D01*
X126003392Y-93217456D01*
X125812344Y-93026408D01*
X125587696Y-92876303D01*
X125456114Y-92821800D01*
X125587696Y-92767297D01*
X125812344Y-92617192D01*
X126003392Y-92426144D01*
X126153497Y-92201496D01*
X126256891Y-91951881D01*
X126309600Y-91686891D01*
X126309600Y-91458202D01*
X127978100Y-93126702D01*
X127978101Y-95550768D01*
X127974424Y-95588100D01*
X127978101Y-95625433D01*
X127981840Y-95663398D01*
X127965000Y-95748061D01*
X127965000Y-95951939D01*
X128004774Y-96151898D01*
X128082795Y-96340256D01*
X128196063Y-96509774D01*
X128340226Y-96653937D01*
X128509744Y-96767205D01*
X128698102Y-96845226D01*
X128898061Y-96885000D01*
X129101939Y-96885000D01*
X129301898Y-96845226D01*
X129490256Y-96767205D01*
X129659774Y-96653937D01*
X129803937Y-96509774D01*
X129917205Y-96340256D01*
X129995226Y-96151898D01*
X130035000Y-95951939D01*
X130035000Y-95748061D01*
X129995226Y-95548102D01*
X129917205Y-95359744D01*
X129803937Y-95190226D01*
X129659774Y-95046063D01*
X129498100Y-94938036D01*
X129498100Y-92849223D01*
X129501776Y-92811900D01*
X129498100Y-92774577D01*
X129498100Y-92774567D01*
X129487103Y-92662914D01*
X129443646Y-92519653D01*
X129380612Y-92401726D01*
X129373074Y-92387623D01*
X129301899Y-92300897D01*
X129278101Y-92271899D01*
X129249104Y-92248102D01*
X126282771Y-89281770D01*
X126309600Y-89146891D01*
X126309600Y-88876709D01*
X126256891Y-88611719D01*
X126153497Y-88362104D01*
X126003392Y-88137456D01*
X125812344Y-87946408D01*
X125587696Y-87796303D01*
X125456114Y-87741800D01*
X125587696Y-87687297D01*
X125812344Y-87537192D01*
X126003392Y-87346144D01*
X126153497Y-87121496D01*
X126256891Y-86871881D01*
X126309600Y-86606891D01*
X126309600Y-86336709D01*
X126256891Y-86071719D01*
X126153497Y-85822104D01*
X126003392Y-85597456D01*
X125812344Y-85406408D01*
X125587696Y-85256303D01*
X125456114Y-85201800D01*
X125587696Y-85147297D01*
X125812344Y-84997192D01*
X126003392Y-84806144D01*
X126153497Y-84581496D01*
X126256891Y-84331881D01*
X126309600Y-84066891D01*
X126309600Y-83796709D01*
X126256891Y-83531719D01*
X126153497Y-83282104D01*
X126003392Y-83057456D01*
X125812344Y-82866408D01*
X125587696Y-82716303D01*
X125338081Y-82612909D01*
X125073091Y-82560200D01*
X124802909Y-82560200D01*
X124537919Y-82612909D01*
X124377520Y-82679348D01*
X124377520Y-80813600D01*
X138932888Y-80813600D01*
X138859109Y-80991719D01*
M02*
