G04 #@! TF.GenerationSoftware,KiCad,Pcbnew,(5.1.0)-1*
G04 #@! TF.CreationDate,2020-11-17T16:37:49-05:00*
G04 #@! TF.ProjectId,T61_LC_Scanner,5436315f-4c43-45f5-9363-616e6e65722e,rev?*
G04 #@! TF.SameCoordinates,Original*
G04 #@! TF.FileFunction,Soldermask,Top*
G04 #@! TF.FilePolarity,Negative*
%FSLAX46Y46*%
G04 Gerber Fmt 4.6, Leading zero omitted, Abs format (unit mm)*
G04 Created by KiCad (PCBNEW (5.1.0)-1) date 2020-11-17 16:37:49*
%MOMM*%
%LPD*%
G04 APERTURE LIST*
%ADD10C,0.100000*%
G04 APERTURE END LIST*
D10*
G36*
X140341525Y-113589706D02*
G01*
X140422494Y-113605811D01*
X140575038Y-113668997D01*
X140711397Y-113760109D01*
X140712322Y-113760727D01*
X140829073Y-113877478D01*
X140829075Y-113877481D01*
X140920803Y-114014762D01*
X140983989Y-114167307D01*
X141016200Y-114329243D01*
X141016200Y-114494357D01*
X140983989Y-114656293D01*
X140920803Y-114808838D01*
X140829691Y-114945197D01*
X140829073Y-114946122D01*
X140712322Y-115062873D01*
X140712319Y-115062875D01*
X140575038Y-115154603D01*
X140498765Y-115186196D01*
X140422494Y-115217789D01*
X140341525Y-115233895D01*
X140260557Y-115250000D01*
X140095443Y-115250000D01*
X140014475Y-115233895D01*
X139933506Y-115217789D01*
X139857235Y-115186196D01*
X139780962Y-115154603D01*
X139643681Y-115062875D01*
X139643678Y-115062873D01*
X139526927Y-114946122D01*
X139526309Y-114945197D01*
X139435197Y-114808838D01*
X139372011Y-114656293D01*
X139339800Y-114494357D01*
X139339800Y-114329243D01*
X139372011Y-114167307D01*
X139435197Y-114014762D01*
X139526925Y-113877481D01*
X139526927Y-113877478D01*
X139643678Y-113760727D01*
X139644603Y-113760109D01*
X139780962Y-113668997D01*
X139933506Y-113605811D01*
X140014475Y-113589706D01*
X140095443Y-113573600D01*
X140260557Y-113573600D01*
X140341525Y-113589706D01*
X140341525Y-113589706D01*
G37*
G36*
X137801525Y-113589706D02*
G01*
X137882494Y-113605811D01*
X138035038Y-113668997D01*
X138171397Y-113760109D01*
X138172322Y-113760727D01*
X138289073Y-113877478D01*
X138289075Y-113877481D01*
X138380803Y-114014762D01*
X138443989Y-114167307D01*
X138476200Y-114329243D01*
X138476200Y-114494357D01*
X138443989Y-114656293D01*
X138380803Y-114808838D01*
X138289691Y-114945197D01*
X138289073Y-114946122D01*
X138172322Y-115062873D01*
X138172319Y-115062875D01*
X138035038Y-115154603D01*
X137958765Y-115186196D01*
X137882494Y-115217789D01*
X137801525Y-115233895D01*
X137720557Y-115250000D01*
X137555443Y-115250000D01*
X137474475Y-115233895D01*
X137393506Y-115217789D01*
X137317235Y-115186196D01*
X137240962Y-115154603D01*
X137103681Y-115062875D01*
X137103678Y-115062873D01*
X136986927Y-114946122D01*
X136986309Y-114945197D01*
X136895197Y-114808838D01*
X136832011Y-114656293D01*
X136799800Y-114494357D01*
X136799800Y-114329243D01*
X136832011Y-114167307D01*
X136895197Y-114014762D01*
X136986925Y-113877481D01*
X136986927Y-113877478D01*
X137103678Y-113760727D01*
X137104603Y-113760109D01*
X137240962Y-113668997D01*
X137393506Y-113605811D01*
X137474475Y-113589706D01*
X137555443Y-113573600D01*
X137720557Y-113573600D01*
X137801525Y-113589706D01*
X137801525Y-113589706D01*
G37*
G36*
X132721525Y-113589706D02*
G01*
X132802494Y-113605811D01*
X132955038Y-113668997D01*
X133091397Y-113760109D01*
X133092322Y-113760727D01*
X133209073Y-113877478D01*
X133209075Y-113877481D01*
X133300803Y-114014762D01*
X133363989Y-114167307D01*
X133396200Y-114329243D01*
X133396200Y-114494357D01*
X133363989Y-114656293D01*
X133300803Y-114808838D01*
X133209691Y-114945197D01*
X133209073Y-114946122D01*
X133092322Y-115062873D01*
X133092319Y-115062875D01*
X132955038Y-115154603D01*
X132878765Y-115186196D01*
X132802494Y-115217789D01*
X132721525Y-115233895D01*
X132640557Y-115250000D01*
X132475443Y-115250000D01*
X132394475Y-115233895D01*
X132313506Y-115217789D01*
X132237235Y-115186196D01*
X132160962Y-115154603D01*
X132023681Y-115062875D01*
X132023678Y-115062873D01*
X131906927Y-114946122D01*
X131906309Y-114945197D01*
X131815197Y-114808838D01*
X131752011Y-114656293D01*
X131719800Y-114494357D01*
X131719800Y-114329243D01*
X131752011Y-114167307D01*
X131815197Y-114014762D01*
X131906925Y-113877481D01*
X131906927Y-113877478D01*
X132023678Y-113760727D01*
X132024603Y-113760109D01*
X132160962Y-113668997D01*
X132313506Y-113605811D01*
X132394475Y-113589706D01*
X132475443Y-113573600D01*
X132640557Y-113573600D01*
X132721525Y-113589706D01*
X132721525Y-113589706D01*
G37*
G36*
X130181525Y-113589706D02*
G01*
X130262494Y-113605811D01*
X130415038Y-113668997D01*
X130551397Y-113760109D01*
X130552322Y-113760727D01*
X130669073Y-113877478D01*
X130669075Y-113877481D01*
X130760803Y-114014762D01*
X130823989Y-114167307D01*
X130856200Y-114329243D01*
X130856200Y-114494357D01*
X130823989Y-114656293D01*
X130760803Y-114808838D01*
X130669691Y-114945197D01*
X130669073Y-114946122D01*
X130552322Y-115062873D01*
X130552319Y-115062875D01*
X130415038Y-115154603D01*
X130338765Y-115186196D01*
X130262494Y-115217789D01*
X130181525Y-115233895D01*
X130100557Y-115250000D01*
X129935443Y-115250000D01*
X129854475Y-115233895D01*
X129773506Y-115217789D01*
X129697235Y-115186196D01*
X129620962Y-115154603D01*
X129483681Y-115062875D01*
X129483678Y-115062873D01*
X129366927Y-114946122D01*
X129366309Y-114945197D01*
X129275197Y-114808838D01*
X129212011Y-114656293D01*
X129179800Y-114494357D01*
X129179800Y-114329243D01*
X129212011Y-114167307D01*
X129275197Y-114014762D01*
X129366925Y-113877481D01*
X129366927Y-113877478D01*
X129483678Y-113760727D01*
X129484603Y-113760109D01*
X129620962Y-113668997D01*
X129773506Y-113605811D01*
X129854475Y-113589706D01*
X129935443Y-113573600D01*
X130100557Y-113573600D01*
X130181525Y-113589706D01*
X130181525Y-113589706D01*
G37*
G36*
X135261525Y-113589706D02*
G01*
X135342494Y-113605811D01*
X135495038Y-113668997D01*
X135631397Y-113760109D01*
X135632322Y-113760727D01*
X135749073Y-113877478D01*
X135749075Y-113877481D01*
X135840803Y-114014762D01*
X135903989Y-114167307D01*
X135936200Y-114329243D01*
X135936200Y-114494357D01*
X135903989Y-114656293D01*
X135840803Y-114808838D01*
X135749691Y-114945197D01*
X135749073Y-114946122D01*
X135632322Y-115062873D01*
X135632319Y-115062875D01*
X135495038Y-115154603D01*
X135418765Y-115186196D01*
X135342494Y-115217789D01*
X135261525Y-115233895D01*
X135180557Y-115250000D01*
X135015443Y-115250000D01*
X134934475Y-115233895D01*
X134853506Y-115217789D01*
X134777235Y-115186196D01*
X134700962Y-115154603D01*
X134563681Y-115062875D01*
X134563678Y-115062873D01*
X134446927Y-114946122D01*
X134446309Y-114945197D01*
X134355197Y-114808838D01*
X134292011Y-114656293D01*
X134259800Y-114494357D01*
X134259800Y-114329243D01*
X134292011Y-114167307D01*
X134355197Y-114014762D01*
X134446925Y-113877481D01*
X134446927Y-113877478D01*
X134563678Y-113760727D01*
X134564603Y-113760109D01*
X134700962Y-113668997D01*
X134853506Y-113605811D01*
X134934475Y-113589706D01*
X135015443Y-113573600D01*
X135180557Y-113573600D01*
X135261525Y-113589706D01*
X135261525Y-113589706D01*
G37*
G36*
X125101525Y-113589706D02*
G01*
X125182494Y-113605811D01*
X125335038Y-113668997D01*
X125471397Y-113760109D01*
X125472322Y-113760727D01*
X125589073Y-113877478D01*
X125589075Y-113877481D01*
X125680803Y-114014762D01*
X125743989Y-114167307D01*
X125776200Y-114329243D01*
X125776200Y-114494357D01*
X125743989Y-114656293D01*
X125680803Y-114808838D01*
X125589691Y-114945197D01*
X125589073Y-114946122D01*
X125472322Y-115062873D01*
X125472319Y-115062875D01*
X125335038Y-115154603D01*
X125258765Y-115186196D01*
X125182494Y-115217789D01*
X125101525Y-115233895D01*
X125020557Y-115250000D01*
X124855443Y-115250000D01*
X124774475Y-115233895D01*
X124693506Y-115217789D01*
X124617235Y-115186196D01*
X124540962Y-115154603D01*
X124403681Y-115062875D01*
X124403678Y-115062873D01*
X124286927Y-114946122D01*
X124286309Y-114945197D01*
X124195197Y-114808838D01*
X124132011Y-114656293D01*
X124099800Y-114494357D01*
X124099800Y-114329243D01*
X124132011Y-114167307D01*
X124195197Y-114014762D01*
X124286925Y-113877481D01*
X124286927Y-113877478D01*
X124403678Y-113760727D01*
X124404603Y-113760109D01*
X124540962Y-113668997D01*
X124693506Y-113605811D01*
X124774475Y-113589706D01*
X124855443Y-113573600D01*
X125020557Y-113573600D01*
X125101525Y-113589706D01*
X125101525Y-113589706D01*
G37*
G36*
X127641525Y-113589706D02*
G01*
X127722494Y-113605811D01*
X127875038Y-113668997D01*
X128011397Y-113760109D01*
X128012322Y-113760727D01*
X128129073Y-113877478D01*
X128129075Y-113877481D01*
X128220803Y-114014762D01*
X128283989Y-114167307D01*
X128316200Y-114329243D01*
X128316200Y-114494357D01*
X128283989Y-114656293D01*
X128220803Y-114808838D01*
X128129691Y-114945197D01*
X128129073Y-114946122D01*
X128012322Y-115062873D01*
X128012319Y-115062875D01*
X127875038Y-115154603D01*
X127798765Y-115186196D01*
X127722494Y-115217789D01*
X127641525Y-115233895D01*
X127560557Y-115250000D01*
X127395443Y-115250000D01*
X127314475Y-115233895D01*
X127233506Y-115217789D01*
X127157235Y-115186196D01*
X127080962Y-115154603D01*
X126943681Y-115062875D01*
X126943678Y-115062873D01*
X126826927Y-114946122D01*
X126826309Y-114945197D01*
X126735197Y-114808838D01*
X126672011Y-114656293D01*
X126639800Y-114494357D01*
X126639800Y-114329243D01*
X126672011Y-114167307D01*
X126735197Y-114014762D01*
X126826925Y-113877481D01*
X126826927Y-113877478D01*
X126943678Y-113760727D01*
X126944603Y-113760109D01*
X127080962Y-113668997D01*
X127233506Y-113605811D01*
X127314475Y-113589706D01*
X127395443Y-113573600D01*
X127560557Y-113573600D01*
X127641525Y-113589706D01*
X127641525Y-113589706D01*
G37*
G36*
X140341525Y-111049705D02*
G01*
X140422494Y-111065811D01*
X140498765Y-111097404D01*
X140575038Y-111128997D01*
X140711397Y-111220109D01*
X140712322Y-111220727D01*
X140829073Y-111337478D01*
X140829075Y-111337481D01*
X140920803Y-111474762D01*
X140983989Y-111627307D01*
X141016200Y-111789243D01*
X141016200Y-111954357D01*
X140983989Y-112116293D01*
X140920803Y-112268838D01*
X140829691Y-112405197D01*
X140829073Y-112406122D01*
X140712322Y-112522873D01*
X140712319Y-112522875D01*
X140575038Y-112614603D01*
X140498765Y-112646196D01*
X140422494Y-112677789D01*
X140341525Y-112693894D01*
X140260557Y-112710000D01*
X140095443Y-112710000D01*
X140014475Y-112693894D01*
X139933506Y-112677789D01*
X139857235Y-112646196D01*
X139780962Y-112614603D01*
X139643681Y-112522875D01*
X139643678Y-112522873D01*
X139526927Y-112406122D01*
X139526309Y-112405197D01*
X139435197Y-112268838D01*
X139372011Y-112116293D01*
X139339800Y-111954357D01*
X139339800Y-111789243D01*
X139372011Y-111627307D01*
X139435197Y-111474762D01*
X139526925Y-111337481D01*
X139526927Y-111337478D01*
X139643678Y-111220727D01*
X139644603Y-111220109D01*
X139780962Y-111128997D01*
X139933506Y-111065811D01*
X140014475Y-111049705D01*
X140095443Y-111033600D01*
X140260557Y-111033600D01*
X140341525Y-111049705D01*
X140341525Y-111049705D01*
G37*
G36*
X125101525Y-111049705D02*
G01*
X125182494Y-111065811D01*
X125258765Y-111097404D01*
X125335038Y-111128997D01*
X125471397Y-111220109D01*
X125472322Y-111220727D01*
X125589073Y-111337478D01*
X125589075Y-111337481D01*
X125680803Y-111474762D01*
X125743989Y-111627307D01*
X125776200Y-111789243D01*
X125776200Y-111954357D01*
X125743989Y-112116293D01*
X125680803Y-112268838D01*
X125589691Y-112405197D01*
X125589073Y-112406122D01*
X125472322Y-112522873D01*
X125472319Y-112522875D01*
X125335038Y-112614603D01*
X125258765Y-112646196D01*
X125182494Y-112677789D01*
X125101525Y-112693894D01*
X125020557Y-112710000D01*
X124855443Y-112710000D01*
X124774475Y-112693894D01*
X124693506Y-112677789D01*
X124617235Y-112646196D01*
X124540962Y-112614603D01*
X124403681Y-112522875D01*
X124403678Y-112522873D01*
X124286927Y-112406122D01*
X124286309Y-112405197D01*
X124195197Y-112268838D01*
X124132011Y-112116293D01*
X124099800Y-111954357D01*
X124099800Y-111789243D01*
X124132011Y-111627307D01*
X124195197Y-111474762D01*
X124286925Y-111337481D01*
X124286927Y-111337478D01*
X124403678Y-111220727D01*
X124404603Y-111220109D01*
X124540962Y-111128997D01*
X124693506Y-111065811D01*
X124774475Y-111049705D01*
X124855443Y-111033600D01*
X125020557Y-111033600D01*
X125101525Y-111049705D01*
X125101525Y-111049705D01*
G37*
G36*
X125101525Y-108509706D02*
G01*
X125182494Y-108525811D01*
X125335038Y-108588997D01*
X125471397Y-108680109D01*
X125472322Y-108680727D01*
X125589073Y-108797478D01*
X125589075Y-108797481D01*
X125680803Y-108934762D01*
X125743989Y-109087307D01*
X125776200Y-109249243D01*
X125776200Y-109414357D01*
X125743989Y-109576293D01*
X125680803Y-109728838D01*
X125589691Y-109865197D01*
X125589073Y-109866122D01*
X125472322Y-109982873D01*
X125472319Y-109982875D01*
X125335038Y-110074603D01*
X125182494Y-110137789D01*
X125101525Y-110153895D01*
X125020557Y-110170000D01*
X124855443Y-110170000D01*
X124774475Y-110153895D01*
X124693506Y-110137789D01*
X124617235Y-110106196D01*
X124540962Y-110074603D01*
X124403681Y-109982875D01*
X124403678Y-109982873D01*
X124286927Y-109866122D01*
X124286309Y-109865197D01*
X124195197Y-109728838D01*
X124132011Y-109576293D01*
X124099800Y-109414357D01*
X124099800Y-109249243D01*
X124132011Y-109087307D01*
X124195197Y-108934762D01*
X124286925Y-108797481D01*
X124286927Y-108797478D01*
X124403678Y-108680727D01*
X124404603Y-108680109D01*
X124540962Y-108588997D01*
X124617235Y-108557404D01*
X124693506Y-108525811D01*
X124774475Y-108509706D01*
X124855443Y-108493600D01*
X125020557Y-108493600D01*
X125101525Y-108509706D01*
X125101525Y-108509706D01*
G37*
G36*
X140341525Y-108509706D02*
G01*
X140422494Y-108525811D01*
X140575038Y-108588997D01*
X140711397Y-108680109D01*
X140712322Y-108680727D01*
X140829073Y-108797478D01*
X140829075Y-108797481D01*
X140920803Y-108934762D01*
X140983989Y-109087307D01*
X141016200Y-109249243D01*
X141016200Y-109414357D01*
X140983989Y-109576293D01*
X140920803Y-109728838D01*
X140829691Y-109865197D01*
X140829073Y-109866122D01*
X140712322Y-109982873D01*
X140712319Y-109982875D01*
X140575038Y-110074603D01*
X140422494Y-110137789D01*
X140341525Y-110153895D01*
X140260557Y-110170000D01*
X140095443Y-110170000D01*
X140014475Y-110153895D01*
X139933506Y-110137789D01*
X139857235Y-110106196D01*
X139780962Y-110074603D01*
X139643681Y-109982875D01*
X139643678Y-109982873D01*
X139526927Y-109866122D01*
X139526309Y-109865197D01*
X139435197Y-109728838D01*
X139372011Y-109576293D01*
X139339800Y-109414357D01*
X139339800Y-109249243D01*
X139372011Y-109087307D01*
X139435197Y-108934762D01*
X139526925Y-108797481D01*
X139526927Y-108797478D01*
X139643678Y-108680727D01*
X139644603Y-108680109D01*
X139780962Y-108588997D01*
X139857235Y-108557404D01*
X139933506Y-108525811D01*
X140014475Y-108509706D01*
X140095443Y-108493600D01*
X140260557Y-108493600D01*
X140341525Y-108509706D01*
X140341525Y-108509706D01*
G37*
G36*
X140341525Y-105969705D02*
G01*
X140422494Y-105985811D01*
X140498765Y-106017404D01*
X140575038Y-106048997D01*
X140711397Y-106140109D01*
X140712322Y-106140727D01*
X140829073Y-106257478D01*
X140829075Y-106257481D01*
X140920803Y-106394762D01*
X140983989Y-106547307D01*
X141016200Y-106709243D01*
X141016200Y-106874357D01*
X140983989Y-107036293D01*
X140920803Y-107188838D01*
X140829691Y-107325197D01*
X140829073Y-107326122D01*
X140712322Y-107442873D01*
X140712319Y-107442875D01*
X140575038Y-107534603D01*
X140498765Y-107566196D01*
X140422494Y-107597789D01*
X140341525Y-107613894D01*
X140260557Y-107630000D01*
X140095443Y-107630000D01*
X140014475Y-107613894D01*
X139933506Y-107597789D01*
X139780962Y-107534603D01*
X139643681Y-107442875D01*
X139643678Y-107442873D01*
X139526927Y-107326122D01*
X139526309Y-107325197D01*
X139435197Y-107188838D01*
X139372011Y-107036293D01*
X139339800Y-106874357D01*
X139339800Y-106709243D01*
X139372011Y-106547307D01*
X139435197Y-106394762D01*
X139526925Y-106257481D01*
X139526927Y-106257478D01*
X139643678Y-106140727D01*
X139644603Y-106140109D01*
X139780962Y-106048997D01*
X139933506Y-105985811D01*
X140014475Y-105969705D01*
X140095443Y-105953600D01*
X140260557Y-105953600D01*
X140341525Y-105969705D01*
X140341525Y-105969705D01*
G37*
G36*
X125101525Y-105969705D02*
G01*
X125182494Y-105985811D01*
X125258765Y-106017404D01*
X125335038Y-106048997D01*
X125471397Y-106140109D01*
X125472322Y-106140727D01*
X125589073Y-106257478D01*
X125589075Y-106257481D01*
X125680803Y-106394762D01*
X125743989Y-106547307D01*
X125776200Y-106709243D01*
X125776200Y-106874357D01*
X125743989Y-107036293D01*
X125680803Y-107188838D01*
X125589691Y-107325197D01*
X125589073Y-107326122D01*
X125472322Y-107442873D01*
X125472319Y-107442875D01*
X125335038Y-107534603D01*
X125258765Y-107566196D01*
X125182494Y-107597789D01*
X125101525Y-107613894D01*
X125020557Y-107630000D01*
X124855443Y-107630000D01*
X124774475Y-107613894D01*
X124693506Y-107597789D01*
X124540962Y-107534603D01*
X124403681Y-107442875D01*
X124403678Y-107442873D01*
X124286927Y-107326122D01*
X124286309Y-107325197D01*
X124195197Y-107188838D01*
X124132011Y-107036293D01*
X124099800Y-106874357D01*
X124099800Y-106709243D01*
X124132011Y-106547307D01*
X124195197Y-106394762D01*
X124286925Y-106257481D01*
X124286927Y-106257478D01*
X124403678Y-106140727D01*
X124404603Y-106140109D01*
X124540962Y-106048997D01*
X124693506Y-105985811D01*
X124774475Y-105969705D01*
X124855443Y-105953600D01*
X125020557Y-105953600D01*
X125101525Y-105969705D01*
X125101525Y-105969705D01*
G37*
G36*
X140341525Y-103429706D02*
G01*
X140422494Y-103445811D01*
X140575038Y-103508997D01*
X140711397Y-103600109D01*
X140712322Y-103600727D01*
X140829073Y-103717478D01*
X140829075Y-103717481D01*
X140920803Y-103854762D01*
X140983989Y-104007307D01*
X141016200Y-104169243D01*
X141016200Y-104334357D01*
X140983989Y-104496293D01*
X140920803Y-104648838D01*
X140829691Y-104785197D01*
X140829073Y-104786122D01*
X140712322Y-104902873D01*
X140712319Y-104902875D01*
X140575038Y-104994603D01*
X140498765Y-105026196D01*
X140422494Y-105057789D01*
X140341525Y-105073895D01*
X140260557Y-105090000D01*
X140095443Y-105090000D01*
X140014475Y-105073894D01*
X139933506Y-105057789D01*
X139857235Y-105026196D01*
X139780962Y-104994603D01*
X139643681Y-104902875D01*
X139643678Y-104902873D01*
X139526927Y-104786122D01*
X139526309Y-104785197D01*
X139435197Y-104648838D01*
X139372011Y-104496293D01*
X139339800Y-104334357D01*
X139339800Y-104169243D01*
X139372011Y-104007307D01*
X139435197Y-103854762D01*
X139526925Y-103717481D01*
X139526927Y-103717478D01*
X139643678Y-103600727D01*
X139644603Y-103600109D01*
X139780962Y-103508997D01*
X139933506Y-103445811D01*
X140014475Y-103429706D01*
X140095443Y-103413600D01*
X140260557Y-103413600D01*
X140341525Y-103429706D01*
X140341525Y-103429706D01*
G37*
G36*
X125101525Y-103429706D02*
G01*
X125182494Y-103445811D01*
X125335038Y-103508997D01*
X125471397Y-103600109D01*
X125472322Y-103600727D01*
X125589073Y-103717478D01*
X125589075Y-103717481D01*
X125680803Y-103854762D01*
X125743989Y-104007307D01*
X125776200Y-104169243D01*
X125776200Y-104334357D01*
X125743989Y-104496293D01*
X125680803Y-104648838D01*
X125589691Y-104785197D01*
X125589073Y-104786122D01*
X125472322Y-104902873D01*
X125472319Y-104902875D01*
X125335038Y-104994603D01*
X125258765Y-105026196D01*
X125182494Y-105057789D01*
X125101525Y-105073895D01*
X125020557Y-105090000D01*
X124855443Y-105090000D01*
X124774475Y-105073894D01*
X124693506Y-105057789D01*
X124617235Y-105026196D01*
X124540962Y-104994603D01*
X124403681Y-104902875D01*
X124403678Y-104902873D01*
X124286927Y-104786122D01*
X124286309Y-104785197D01*
X124195197Y-104648838D01*
X124132011Y-104496293D01*
X124099800Y-104334357D01*
X124099800Y-104169243D01*
X124132011Y-104007307D01*
X124195197Y-103854762D01*
X124286925Y-103717481D01*
X124286927Y-103717478D01*
X124403678Y-103600727D01*
X124404603Y-103600109D01*
X124540962Y-103508997D01*
X124693506Y-103445811D01*
X124774475Y-103429706D01*
X124855443Y-103413600D01*
X125020557Y-103413600D01*
X125101525Y-103429706D01*
X125101525Y-103429706D01*
G37*
G36*
X125101525Y-100889705D02*
G01*
X125182494Y-100905811D01*
X125335038Y-100968997D01*
X125471397Y-101060109D01*
X125472322Y-101060727D01*
X125589073Y-101177478D01*
X125589075Y-101177481D01*
X125680803Y-101314762D01*
X125743989Y-101467307D01*
X125776200Y-101629243D01*
X125776200Y-101794357D01*
X125743989Y-101956293D01*
X125680803Y-102108838D01*
X125589691Y-102245197D01*
X125589073Y-102246122D01*
X125472322Y-102362873D01*
X125472319Y-102362875D01*
X125335038Y-102454603D01*
X125182494Y-102517789D01*
X125101525Y-102533895D01*
X125020557Y-102550000D01*
X124855443Y-102550000D01*
X124774475Y-102533895D01*
X124693506Y-102517789D01*
X124617235Y-102486196D01*
X124540962Y-102454603D01*
X124403681Y-102362875D01*
X124403678Y-102362873D01*
X124286927Y-102246122D01*
X124286309Y-102245197D01*
X124195197Y-102108838D01*
X124132011Y-101956293D01*
X124099800Y-101794357D01*
X124099800Y-101629243D01*
X124132011Y-101467307D01*
X124195197Y-101314762D01*
X124286925Y-101177481D01*
X124286927Y-101177478D01*
X124403678Y-101060727D01*
X124404603Y-101060109D01*
X124540962Y-100968997D01*
X124617235Y-100937404D01*
X124693506Y-100905811D01*
X124774475Y-100889706D01*
X124855443Y-100873600D01*
X125020557Y-100873600D01*
X125101525Y-100889705D01*
X125101525Y-100889705D01*
G37*
G36*
X140341525Y-100889705D02*
G01*
X140422494Y-100905811D01*
X140575038Y-100968997D01*
X140711397Y-101060109D01*
X140712322Y-101060727D01*
X140829073Y-101177478D01*
X140829075Y-101177481D01*
X140920803Y-101314762D01*
X140983989Y-101467307D01*
X141016200Y-101629243D01*
X141016200Y-101794357D01*
X140983989Y-101956293D01*
X140920803Y-102108838D01*
X140829691Y-102245197D01*
X140829073Y-102246122D01*
X140712322Y-102362873D01*
X140712319Y-102362875D01*
X140575038Y-102454603D01*
X140422494Y-102517789D01*
X140341525Y-102533895D01*
X140260557Y-102550000D01*
X140095443Y-102550000D01*
X140014475Y-102533895D01*
X139933506Y-102517789D01*
X139857235Y-102486196D01*
X139780962Y-102454603D01*
X139643681Y-102362875D01*
X139643678Y-102362873D01*
X139526927Y-102246122D01*
X139526309Y-102245197D01*
X139435197Y-102108838D01*
X139372011Y-101956293D01*
X139339800Y-101794357D01*
X139339800Y-101629243D01*
X139372011Y-101467307D01*
X139435197Y-101314762D01*
X139526925Y-101177481D01*
X139526927Y-101177478D01*
X139643678Y-101060727D01*
X139644603Y-101060109D01*
X139780962Y-100968997D01*
X139857235Y-100937404D01*
X139933506Y-100905811D01*
X140014475Y-100889706D01*
X140095443Y-100873600D01*
X140260557Y-100873600D01*
X140341525Y-100889705D01*
X140341525Y-100889705D01*
G37*
G36*
X140341525Y-98349705D02*
G01*
X140422494Y-98365811D01*
X140575038Y-98428997D01*
X140711397Y-98520109D01*
X140712322Y-98520727D01*
X140829073Y-98637478D01*
X140829075Y-98637481D01*
X140920803Y-98774762D01*
X140983989Y-98927307D01*
X141016200Y-99089243D01*
X141016200Y-99254357D01*
X140983989Y-99416293D01*
X140920803Y-99568838D01*
X140829691Y-99705197D01*
X140829073Y-99706122D01*
X140712322Y-99822873D01*
X140712319Y-99822875D01*
X140575038Y-99914603D01*
X140498765Y-99946196D01*
X140422494Y-99977789D01*
X140341525Y-99993894D01*
X140260557Y-100010000D01*
X140095443Y-100010000D01*
X140014475Y-99993894D01*
X139933506Y-99977789D01*
X139857235Y-99946196D01*
X139780962Y-99914603D01*
X139643681Y-99822875D01*
X139643678Y-99822873D01*
X139526927Y-99706122D01*
X139526309Y-99705197D01*
X139435197Y-99568838D01*
X139372011Y-99416293D01*
X139339800Y-99254357D01*
X139339800Y-99089243D01*
X139372011Y-98927307D01*
X139435197Y-98774762D01*
X139526925Y-98637481D01*
X139526927Y-98637478D01*
X139643678Y-98520727D01*
X139644603Y-98520109D01*
X139780962Y-98428997D01*
X139933506Y-98365811D01*
X140014475Y-98349706D01*
X140095443Y-98333600D01*
X140260557Y-98333600D01*
X140341525Y-98349705D01*
X140341525Y-98349705D01*
G37*
G36*
X125101525Y-98349705D02*
G01*
X125182494Y-98365811D01*
X125335038Y-98428997D01*
X125471397Y-98520109D01*
X125472322Y-98520727D01*
X125589073Y-98637478D01*
X125589075Y-98637481D01*
X125680803Y-98774762D01*
X125743989Y-98927307D01*
X125776200Y-99089243D01*
X125776200Y-99254357D01*
X125743989Y-99416293D01*
X125680803Y-99568838D01*
X125589691Y-99705197D01*
X125589073Y-99706122D01*
X125472322Y-99822873D01*
X125472319Y-99822875D01*
X125335038Y-99914603D01*
X125258765Y-99946196D01*
X125182494Y-99977789D01*
X125101525Y-99993894D01*
X125020557Y-100010000D01*
X124855443Y-100010000D01*
X124774475Y-99993894D01*
X124693506Y-99977789D01*
X124617235Y-99946196D01*
X124540962Y-99914603D01*
X124403681Y-99822875D01*
X124403678Y-99822873D01*
X124286927Y-99706122D01*
X124286309Y-99705197D01*
X124195197Y-99568838D01*
X124132011Y-99416293D01*
X124099800Y-99254357D01*
X124099800Y-99089243D01*
X124132011Y-98927307D01*
X124195197Y-98774762D01*
X124286925Y-98637481D01*
X124286927Y-98637478D01*
X124403678Y-98520727D01*
X124404603Y-98520109D01*
X124540962Y-98428997D01*
X124693506Y-98365811D01*
X124774475Y-98349706D01*
X124855443Y-98333600D01*
X125020557Y-98333600D01*
X125101525Y-98349705D01*
X125101525Y-98349705D01*
G37*
G36*
X140341525Y-95809705D02*
G01*
X140422494Y-95825811D01*
X140498765Y-95857404D01*
X140575038Y-95888997D01*
X140711397Y-95980109D01*
X140712322Y-95980727D01*
X140829073Y-96097478D01*
X140829075Y-96097481D01*
X140920803Y-96234762D01*
X140983989Y-96387307D01*
X141016200Y-96549243D01*
X141016200Y-96714357D01*
X140983989Y-96876293D01*
X140920803Y-97028838D01*
X140829691Y-97165197D01*
X140829073Y-97166122D01*
X140712322Y-97282873D01*
X140712319Y-97282875D01*
X140575038Y-97374603D01*
X140422494Y-97437789D01*
X140341525Y-97453895D01*
X140260557Y-97470000D01*
X140095443Y-97470000D01*
X140014475Y-97453894D01*
X139933506Y-97437789D01*
X139780962Y-97374603D01*
X139643681Y-97282875D01*
X139643678Y-97282873D01*
X139526927Y-97166122D01*
X139526309Y-97165197D01*
X139435197Y-97028838D01*
X139372011Y-96876293D01*
X139339800Y-96714357D01*
X139339800Y-96549243D01*
X139372011Y-96387307D01*
X139435197Y-96234762D01*
X139526925Y-96097481D01*
X139526927Y-96097478D01*
X139643678Y-95980727D01*
X139644603Y-95980109D01*
X139780962Y-95888997D01*
X139857235Y-95857404D01*
X139933506Y-95825811D01*
X140014475Y-95809706D01*
X140095443Y-95793600D01*
X140260557Y-95793600D01*
X140341525Y-95809705D01*
X140341525Y-95809705D01*
G37*
G36*
X125101525Y-95809705D02*
G01*
X125182494Y-95825811D01*
X125258765Y-95857404D01*
X125335038Y-95888997D01*
X125471397Y-95980109D01*
X125472322Y-95980727D01*
X125589073Y-96097478D01*
X125589075Y-96097481D01*
X125680803Y-96234762D01*
X125743989Y-96387307D01*
X125776200Y-96549243D01*
X125776200Y-96714357D01*
X125743989Y-96876293D01*
X125680803Y-97028838D01*
X125589691Y-97165197D01*
X125589073Y-97166122D01*
X125472322Y-97282873D01*
X125472319Y-97282875D01*
X125335038Y-97374603D01*
X125182494Y-97437789D01*
X125101525Y-97453895D01*
X125020557Y-97470000D01*
X124855443Y-97470000D01*
X124774475Y-97453894D01*
X124693506Y-97437789D01*
X124540962Y-97374603D01*
X124403681Y-97282875D01*
X124403678Y-97282873D01*
X124286927Y-97166122D01*
X124286309Y-97165197D01*
X124195197Y-97028838D01*
X124132011Y-96876293D01*
X124099800Y-96714357D01*
X124099800Y-96549243D01*
X124132011Y-96387307D01*
X124195197Y-96234762D01*
X124286925Y-96097481D01*
X124286927Y-96097478D01*
X124403678Y-95980727D01*
X124404603Y-95980109D01*
X124540962Y-95888997D01*
X124617235Y-95857404D01*
X124693506Y-95825811D01*
X124774475Y-95809706D01*
X124855443Y-95793600D01*
X125020557Y-95793600D01*
X125101525Y-95809705D01*
X125101525Y-95809705D01*
G37*
G36*
X131849600Y-95665300D02*
G01*
X130746400Y-95665300D01*
X130746400Y-94662100D01*
X131849600Y-94662100D01*
X131849600Y-95665300D01*
X131849600Y-95665300D01*
G37*
G36*
X140341525Y-93269705D02*
G01*
X140422494Y-93285811D01*
X140575038Y-93348997D01*
X140711397Y-93440109D01*
X140712322Y-93440727D01*
X140829073Y-93557478D01*
X140829075Y-93557481D01*
X140920803Y-93694762D01*
X140983989Y-93847307D01*
X141016200Y-94009243D01*
X141016200Y-94174357D01*
X140983989Y-94336293D01*
X140920803Y-94488838D01*
X140878867Y-94551600D01*
X140829073Y-94626122D01*
X140712322Y-94742873D01*
X140712319Y-94742875D01*
X140575038Y-94834603D01*
X140422494Y-94897789D01*
X140341525Y-94913895D01*
X140260557Y-94930000D01*
X140095443Y-94930000D01*
X140014475Y-94913894D01*
X139933506Y-94897789D01*
X139780962Y-94834603D01*
X139643681Y-94742875D01*
X139643678Y-94742873D01*
X139526927Y-94626122D01*
X139477133Y-94551600D01*
X139435197Y-94488838D01*
X139372011Y-94336293D01*
X139339800Y-94174357D01*
X139339800Y-94009243D01*
X139372011Y-93847307D01*
X139435197Y-93694762D01*
X139526925Y-93557481D01*
X139526927Y-93557478D01*
X139643678Y-93440727D01*
X139644603Y-93440109D01*
X139780962Y-93348997D01*
X139857235Y-93317404D01*
X139933506Y-93285811D01*
X140014475Y-93269705D01*
X140095443Y-93253600D01*
X140260557Y-93253600D01*
X140341525Y-93269705D01*
X140341525Y-93269705D01*
G37*
G36*
X137801525Y-93269705D02*
G01*
X137882494Y-93285811D01*
X138035038Y-93348997D01*
X138171397Y-93440109D01*
X138172322Y-93440727D01*
X138289073Y-93557478D01*
X138289075Y-93557481D01*
X138380803Y-93694762D01*
X138443989Y-93847307D01*
X138476200Y-94009243D01*
X138476200Y-94174357D01*
X138443989Y-94336293D01*
X138380803Y-94488838D01*
X138338867Y-94551600D01*
X138289073Y-94626122D01*
X138172322Y-94742873D01*
X138172319Y-94742875D01*
X138035038Y-94834603D01*
X137882494Y-94897789D01*
X137801525Y-94913895D01*
X137720557Y-94930000D01*
X137555443Y-94930000D01*
X137474475Y-94913894D01*
X137393506Y-94897789D01*
X137240962Y-94834603D01*
X137103681Y-94742875D01*
X137103678Y-94742873D01*
X136986927Y-94626122D01*
X136937133Y-94551600D01*
X136895197Y-94488838D01*
X136832011Y-94336293D01*
X136799800Y-94174357D01*
X136799800Y-94009243D01*
X136832011Y-93847307D01*
X136895197Y-93694762D01*
X136986925Y-93557481D01*
X136986927Y-93557478D01*
X137103678Y-93440727D01*
X137104603Y-93440109D01*
X137240962Y-93348997D01*
X137317235Y-93317404D01*
X137393506Y-93285811D01*
X137474475Y-93269705D01*
X137555443Y-93253600D01*
X137720557Y-93253600D01*
X137801525Y-93269705D01*
X137801525Y-93269705D01*
G37*
G36*
X125101525Y-93269705D02*
G01*
X125182494Y-93285811D01*
X125335038Y-93348997D01*
X125471397Y-93440109D01*
X125472322Y-93440727D01*
X125589073Y-93557478D01*
X125589075Y-93557481D01*
X125680803Y-93694762D01*
X125743989Y-93847307D01*
X125776200Y-94009243D01*
X125776200Y-94174357D01*
X125743989Y-94336293D01*
X125680803Y-94488838D01*
X125638867Y-94551600D01*
X125589073Y-94626122D01*
X125472322Y-94742873D01*
X125472319Y-94742875D01*
X125335038Y-94834603D01*
X125182494Y-94897789D01*
X125101525Y-94913895D01*
X125020557Y-94930000D01*
X124855443Y-94930000D01*
X124774475Y-94913894D01*
X124693506Y-94897789D01*
X124540962Y-94834603D01*
X124403681Y-94742875D01*
X124403678Y-94742873D01*
X124286927Y-94626122D01*
X124237133Y-94551600D01*
X124195197Y-94488838D01*
X124132011Y-94336293D01*
X124099800Y-94174357D01*
X124099800Y-94009243D01*
X124132011Y-93847307D01*
X124195197Y-93694762D01*
X124286925Y-93557481D01*
X124286927Y-93557478D01*
X124403678Y-93440727D01*
X124404603Y-93440109D01*
X124540962Y-93348997D01*
X124617235Y-93317404D01*
X124693506Y-93285811D01*
X124774475Y-93269705D01*
X124855443Y-93253600D01*
X125020557Y-93253600D01*
X125101525Y-93269705D01*
X125101525Y-93269705D01*
G37*
G36*
X133949600Y-94715300D02*
G01*
X132846400Y-94715300D01*
X132846400Y-93712100D01*
X133949600Y-93712100D01*
X133949600Y-94715300D01*
X133949600Y-94715300D01*
G37*
G36*
X129501600Y-94551600D02*
G01*
X128298400Y-94551600D01*
X128298400Y-93248400D01*
X129501600Y-93248400D01*
X129501600Y-94551600D01*
X129501600Y-94551600D01*
G37*
G36*
X131849600Y-93765300D02*
G01*
X130746400Y-93765300D01*
X130746400Y-92762100D01*
X131849600Y-92762100D01*
X131849600Y-93765300D01*
X131849600Y-93765300D01*
G37*
G36*
X135451600Y-93600400D02*
G01*
X134248400Y-93600400D01*
X134248400Y-92297200D01*
X135451600Y-92297200D01*
X135451600Y-93600400D01*
X135451600Y-93600400D01*
G37*
G36*
X129501600Y-92851600D02*
G01*
X128298400Y-92851600D01*
X128298400Y-91548400D01*
X129501600Y-91548400D01*
X129501600Y-92851600D01*
X129501600Y-92851600D01*
G37*
G36*
X140341525Y-90729705D02*
G01*
X140422494Y-90745811D01*
X140498765Y-90777404D01*
X140575038Y-90808997D01*
X140711397Y-90900109D01*
X140712322Y-90900727D01*
X140829073Y-91017478D01*
X140829075Y-91017481D01*
X140920803Y-91154762D01*
X140983989Y-91307307D01*
X141016200Y-91469243D01*
X141016200Y-91634357D01*
X140983989Y-91796293D01*
X140920803Y-91948838D01*
X140829691Y-92085197D01*
X140829073Y-92086122D01*
X140712322Y-92202873D01*
X140712319Y-92202875D01*
X140575038Y-92294603D01*
X140498765Y-92326196D01*
X140422494Y-92357789D01*
X140341525Y-92373895D01*
X140260557Y-92390000D01*
X140095443Y-92390000D01*
X140014475Y-92373894D01*
X139933506Y-92357789D01*
X139780962Y-92294603D01*
X139643681Y-92202875D01*
X139643678Y-92202873D01*
X139526927Y-92086122D01*
X139526309Y-92085197D01*
X139435197Y-91948838D01*
X139372011Y-91796293D01*
X139339800Y-91634357D01*
X139339800Y-91469243D01*
X139372011Y-91307307D01*
X139435197Y-91154762D01*
X139526925Y-91017481D01*
X139526927Y-91017478D01*
X139643678Y-90900727D01*
X139644603Y-90900109D01*
X139780962Y-90808997D01*
X139933506Y-90745811D01*
X140014475Y-90729706D01*
X140095443Y-90713600D01*
X140260557Y-90713600D01*
X140341525Y-90729705D01*
X140341525Y-90729705D01*
G37*
G36*
X137801525Y-90729705D02*
G01*
X137882494Y-90745811D01*
X137958765Y-90777404D01*
X138035038Y-90808997D01*
X138171397Y-90900109D01*
X138172322Y-90900727D01*
X138289073Y-91017478D01*
X138289075Y-91017481D01*
X138380803Y-91154762D01*
X138443989Y-91307307D01*
X138476200Y-91469243D01*
X138476200Y-91634357D01*
X138443989Y-91796293D01*
X138380803Y-91948838D01*
X138289691Y-92085197D01*
X138289073Y-92086122D01*
X138172322Y-92202873D01*
X138172319Y-92202875D01*
X138035038Y-92294603D01*
X137958765Y-92326196D01*
X137882494Y-92357789D01*
X137801525Y-92373895D01*
X137720557Y-92390000D01*
X137555443Y-92390000D01*
X137474475Y-92373894D01*
X137393506Y-92357789D01*
X137240962Y-92294603D01*
X137103681Y-92202875D01*
X137103678Y-92202873D01*
X136986927Y-92086122D01*
X136986309Y-92085197D01*
X136895197Y-91948838D01*
X136832011Y-91796293D01*
X136799800Y-91634357D01*
X136799800Y-91469243D01*
X136832011Y-91307307D01*
X136895197Y-91154762D01*
X136986925Y-91017481D01*
X136986927Y-91017478D01*
X137103678Y-90900727D01*
X137104603Y-90900109D01*
X137240962Y-90808997D01*
X137393506Y-90745811D01*
X137474475Y-90729706D01*
X137555443Y-90713600D01*
X137720557Y-90713600D01*
X137801525Y-90729705D01*
X137801525Y-90729705D01*
G37*
G36*
X125101525Y-90729705D02*
G01*
X125182494Y-90745811D01*
X125258765Y-90777404D01*
X125335038Y-90808997D01*
X125471397Y-90900109D01*
X125472322Y-90900727D01*
X125589073Y-91017478D01*
X125589075Y-91017481D01*
X125680803Y-91154762D01*
X125743989Y-91307307D01*
X125776200Y-91469243D01*
X125776200Y-91634357D01*
X125743989Y-91796293D01*
X125680803Y-91948838D01*
X125589691Y-92085197D01*
X125589073Y-92086122D01*
X125472322Y-92202873D01*
X125472319Y-92202875D01*
X125335038Y-92294603D01*
X125258765Y-92326196D01*
X125182494Y-92357789D01*
X125101525Y-92373895D01*
X125020557Y-92390000D01*
X124855443Y-92390000D01*
X124774475Y-92373894D01*
X124693506Y-92357789D01*
X124540962Y-92294603D01*
X124403681Y-92202875D01*
X124403678Y-92202873D01*
X124286927Y-92086122D01*
X124286309Y-92085197D01*
X124195197Y-91948838D01*
X124132011Y-91796293D01*
X124099800Y-91634357D01*
X124099800Y-91469243D01*
X124132011Y-91307307D01*
X124195197Y-91154762D01*
X124286925Y-91017481D01*
X124286927Y-91017478D01*
X124403678Y-90900727D01*
X124404603Y-90900109D01*
X124540962Y-90808997D01*
X124693506Y-90745811D01*
X124774475Y-90729706D01*
X124855443Y-90713600D01*
X125020557Y-90713600D01*
X125101525Y-90729705D01*
X125101525Y-90729705D01*
G37*
G36*
X135451600Y-91900400D02*
G01*
X134248400Y-91900400D01*
X134248400Y-90597200D01*
X135451600Y-90597200D01*
X135451600Y-91900400D01*
X135451600Y-91900400D01*
G37*
G36*
X131946600Y-90702100D02*
G01*
X130843400Y-90702100D01*
X130843400Y-89698900D01*
X131946600Y-89698900D01*
X131946600Y-90702100D01*
X131946600Y-90702100D01*
G37*
G36*
X129751600Y-89851600D02*
G01*
X128548400Y-89851600D01*
X128548400Y-88548400D01*
X129751600Y-88548400D01*
X129751600Y-89851600D01*
X129751600Y-89851600D01*
G37*
G36*
X140341525Y-88189705D02*
G01*
X140422494Y-88205811D01*
X140575038Y-88268997D01*
X140711397Y-88360109D01*
X140712322Y-88360727D01*
X140829073Y-88477478D01*
X140829075Y-88477481D01*
X140920803Y-88614762D01*
X140983989Y-88767307D01*
X141016200Y-88929243D01*
X141016200Y-89094357D01*
X140983989Y-89256293D01*
X140920803Y-89408838D01*
X140829691Y-89545197D01*
X140829073Y-89546122D01*
X140712322Y-89662873D01*
X140712319Y-89662875D01*
X140575038Y-89754603D01*
X140422494Y-89817789D01*
X140341525Y-89833894D01*
X140260557Y-89850000D01*
X140095443Y-89850000D01*
X140014475Y-89833894D01*
X139933506Y-89817789D01*
X139857235Y-89786196D01*
X139780962Y-89754603D01*
X139643681Y-89662875D01*
X139643678Y-89662873D01*
X139526927Y-89546122D01*
X139526309Y-89545197D01*
X139435197Y-89408838D01*
X139372011Y-89256293D01*
X139339800Y-89094357D01*
X139339800Y-88929243D01*
X139372011Y-88767307D01*
X139435197Y-88614762D01*
X139526925Y-88477481D01*
X139526927Y-88477478D01*
X139643678Y-88360727D01*
X139644603Y-88360109D01*
X139780962Y-88268997D01*
X139857235Y-88237404D01*
X139933506Y-88205811D01*
X140014475Y-88189706D01*
X140095443Y-88173600D01*
X140260557Y-88173600D01*
X140341525Y-88189705D01*
X140341525Y-88189705D01*
G37*
G36*
X125101525Y-88189705D02*
G01*
X125182494Y-88205811D01*
X125335038Y-88268997D01*
X125471397Y-88360109D01*
X125472322Y-88360727D01*
X125589073Y-88477478D01*
X125589075Y-88477481D01*
X125680803Y-88614762D01*
X125743989Y-88767307D01*
X125776200Y-88929243D01*
X125776200Y-89094357D01*
X125743989Y-89256293D01*
X125680803Y-89408838D01*
X125589691Y-89545197D01*
X125589073Y-89546122D01*
X125472322Y-89662873D01*
X125472319Y-89662875D01*
X125335038Y-89754603D01*
X125182494Y-89817789D01*
X125101525Y-89833894D01*
X125020557Y-89850000D01*
X124855443Y-89850000D01*
X124774475Y-89833894D01*
X124693506Y-89817789D01*
X124617235Y-89786196D01*
X124540962Y-89754603D01*
X124403681Y-89662875D01*
X124403678Y-89662873D01*
X124286927Y-89546122D01*
X124286309Y-89545197D01*
X124195197Y-89408838D01*
X124132011Y-89256293D01*
X124099800Y-89094357D01*
X124099800Y-88929243D01*
X124132011Y-88767307D01*
X124195197Y-88614762D01*
X124286925Y-88477481D01*
X124286927Y-88477478D01*
X124403678Y-88360727D01*
X124404603Y-88360109D01*
X124540962Y-88268997D01*
X124617235Y-88237404D01*
X124693506Y-88205811D01*
X124774475Y-88189706D01*
X124855443Y-88173600D01*
X125020557Y-88173600D01*
X125101525Y-88189705D01*
X125101525Y-88189705D01*
G37*
G36*
X137801525Y-88189705D02*
G01*
X137882494Y-88205811D01*
X138035038Y-88268997D01*
X138171397Y-88360109D01*
X138172322Y-88360727D01*
X138289073Y-88477478D01*
X138289075Y-88477481D01*
X138380803Y-88614762D01*
X138443989Y-88767307D01*
X138476200Y-88929243D01*
X138476200Y-89094357D01*
X138443989Y-89256293D01*
X138380803Y-89408838D01*
X138289691Y-89545197D01*
X138289073Y-89546122D01*
X138172322Y-89662873D01*
X138172319Y-89662875D01*
X138035038Y-89754603D01*
X137882494Y-89817789D01*
X137801525Y-89833894D01*
X137720557Y-89850000D01*
X137555443Y-89850000D01*
X137474475Y-89833894D01*
X137393506Y-89817789D01*
X137317235Y-89786196D01*
X137240962Y-89754603D01*
X137103681Y-89662875D01*
X137103678Y-89662873D01*
X136986927Y-89546122D01*
X136986309Y-89545197D01*
X136895197Y-89408838D01*
X136832011Y-89256293D01*
X136799800Y-89094357D01*
X136799800Y-88929243D01*
X136832011Y-88767307D01*
X136895197Y-88614762D01*
X136986925Y-88477481D01*
X136986927Y-88477478D01*
X137103678Y-88360727D01*
X137104603Y-88360109D01*
X137240962Y-88268997D01*
X137317235Y-88237404D01*
X137393506Y-88205811D01*
X137474475Y-88189706D01*
X137555443Y-88173600D01*
X137720557Y-88173600D01*
X137801525Y-88189705D01*
X137801525Y-88189705D01*
G37*
G36*
X134046600Y-89752100D02*
G01*
X132943400Y-89752100D01*
X132943400Y-88748900D01*
X134046600Y-88748900D01*
X134046600Y-89752100D01*
X134046600Y-89752100D01*
G37*
G36*
X131946600Y-88802100D02*
G01*
X130843400Y-88802100D01*
X130843400Y-87798900D01*
X131946600Y-87798900D01*
X131946600Y-88802100D01*
X131946600Y-88802100D01*
G37*
G36*
X129751600Y-88151600D02*
G01*
X128548400Y-88151600D01*
X128548400Y-86848400D01*
X129751600Y-86848400D01*
X129751600Y-88151600D01*
X129751600Y-88151600D01*
G37*
G36*
X136151600Y-87951600D02*
G01*
X134948400Y-87951600D01*
X134948400Y-86648400D01*
X136151600Y-86648400D01*
X136151600Y-87951600D01*
X136151600Y-87951600D01*
G37*
G36*
X140341525Y-85649706D02*
G01*
X140422494Y-85665811D01*
X140498765Y-85697404D01*
X140575038Y-85728997D01*
X140683367Y-85801380D01*
X140712322Y-85820727D01*
X140829073Y-85937478D01*
X140829075Y-85937481D01*
X140920803Y-86074762D01*
X140983989Y-86227307D01*
X141016200Y-86389243D01*
X141016200Y-86554357D01*
X140983989Y-86716293D01*
X140920803Y-86868838D01*
X140829691Y-87005197D01*
X140829073Y-87006122D01*
X140712322Y-87122873D01*
X140712319Y-87122875D01*
X140575038Y-87214603D01*
X140422494Y-87277789D01*
X140341525Y-87293895D01*
X140260557Y-87310000D01*
X140095443Y-87310000D01*
X140014475Y-87293894D01*
X139933506Y-87277789D01*
X139780962Y-87214603D01*
X139643681Y-87122875D01*
X139643678Y-87122873D01*
X139526927Y-87006122D01*
X139526309Y-87005197D01*
X139435197Y-86868838D01*
X139372011Y-86716293D01*
X139339800Y-86554357D01*
X139339800Y-86389243D01*
X139372011Y-86227307D01*
X139435197Y-86074762D01*
X139526925Y-85937481D01*
X139526927Y-85937478D01*
X139643678Y-85820727D01*
X139672633Y-85801380D01*
X139780962Y-85728997D01*
X139857235Y-85697404D01*
X139933506Y-85665811D01*
X140014475Y-85649706D01*
X140095443Y-85633600D01*
X140260557Y-85633600D01*
X140341525Y-85649706D01*
X140341525Y-85649706D01*
G37*
G36*
X125101525Y-85649706D02*
G01*
X125182494Y-85665811D01*
X125258765Y-85697404D01*
X125335038Y-85728997D01*
X125443367Y-85801380D01*
X125472322Y-85820727D01*
X125589073Y-85937478D01*
X125589075Y-85937481D01*
X125680803Y-86074762D01*
X125743989Y-86227307D01*
X125776200Y-86389243D01*
X125776200Y-86554357D01*
X125743989Y-86716293D01*
X125680803Y-86868838D01*
X125589691Y-87005197D01*
X125589073Y-87006122D01*
X125472322Y-87122873D01*
X125472319Y-87122875D01*
X125335038Y-87214603D01*
X125182494Y-87277789D01*
X125101525Y-87293895D01*
X125020557Y-87310000D01*
X124855443Y-87310000D01*
X124774475Y-87293894D01*
X124693506Y-87277789D01*
X124540962Y-87214603D01*
X124403681Y-87122875D01*
X124403678Y-87122873D01*
X124286927Y-87006122D01*
X124286309Y-87005197D01*
X124195197Y-86868838D01*
X124132011Y-86716293D01*
X124099800Y-86554357D01*
X124099800Y-86389243D01*
X124132011Y-86227307D01*
X124195197Y-86074762D01*
X124286925Y-85937481D01*
X124286927Y-85937478D01*
X124403678Y-85820727D01*
X124432633Y-85801380D01*
X124540962Y-85728997D01*
X124617235Y-85697404D01*
X124693506Y-85665811D01*
X124774475Y-85649706D01*
X124855443Y-85633600D01*
X125020557Y-85633600D01*
X125101525Y-85649706D01*
X125101525Y-85649706D01*
G37*
G36*
X136151600Y-86251600D02*
G01*
X134948400Y-86251600D01*
X134948400Y-84948400D01*
X136151600Y-84948400D01*
X136151600Y-86251600D01*
X136151600Y-86251600D01*
G37*
G36*
X132953765Y-83798620D02*
G01*
X133143288Y-83877123D01*
X133313854Y-83991092D01*
X133458908Y-84136146D01*
X133458909Y-84136148D01*
X133572878Y-84306714D01*
X133582042Y-84328838D01*
X133651380Y-84496235D01*
X133691400Y-84697431D01*
X133691400Y-84902569D01*
X133651380Y-85103765D01*
X133572877Y-85293288D01*
X133458908Y-85463854D01*
X133313854Y-85608908D01*
X133143288Y-85722877D01*
X133143287Y-85722878D01*
X133143286Y-85722878D01*
X132953765Y-85801380D01*
X132752570Y-85841400D01*
X132547430Y-85841400D01*
X132346235Y-85801380D01*
X132156714Y-85722878D01*
X132156713Y-85722878D01*
X132156712Y-85722877D01*
X131986146Y-85608908D01*
X131841092Y-85463854D01*
X131727123Y-85293288D01*
X131648620Y-85103765D01*
X131608600Y-84902569D01*
X131608600Y-84697431D01*
X131648620Y-84496235D01*
X131717958Y-84328838D01*
X131727122Y-84306714D01*
X131841091Y-84136148D01*
X131841092Y-84136146D01*
X131986146Y-83991092D01*
X132156712Y-83877123D01*
X132346235Y-83798620D01*
X132547430Y-83758600D01*
X132752570Y-83758600D01*
X132953765Y-83798620D01*
X132953765Y-83798620D01*
G37*
G36*
X127987600Y-85181000D02*
G01*
X126784400Y-85181000D01*
X126784400Y-83877800D01*
X127987600Y-83877800D01*
X127987600Y-85181000D01*
X127987600Y-85181000D01*
G37*
G36*
X125101525Y-83109706D02*
G01*
X125182494Y-83125811D01*
X125335038Y-83188997D01*
X125471397Y-83280109D01*
X125472322Y-83280727D01*
X125589073Y-83397478D01*
X125589075Y-83397481D01*
X125680803Y-83534762D01*
X125743989Y-83687307D01*
X125776200Y-83849243D01*
X125776200Y-84014357D01*
X125743989Y-84176293D01*
X125680803Y-84328838D01*
X125589691Y-84465197D01*
X125589073Y-84466122D01*
X125472322Y-84582873D01*
X125472319Y-84582875D01*
X125335038Y-84674603D01*
X125279926Y-84697431D01*
X125182494Y-84737789D01*
X125101525Y-84753895D01*
X125020557Y-84770000D01*
X124855443Y-84770000D01*
X124774475Y-84753894D01*
X124693506Y-84737789D01*
X124596074Y-84697431D01*
X124540962Y-84674603D01*
X124403681Y-84582875D01*
X124403678Y-84582873D01*
X124286927Y-84466122D01*
X124286309Y-84465197D01*
X124195197Y-84328838D01*
X124132011Y-84176293D01*
X124099800Y-84014357D01*
X124099800Y-83849243D01*
X124132011Y-83687307D01*
X124195197Y-83534762D01*
X124286925Y-83397481D01*
X124286927Y-83397478D01*
X124403678Y-83280727D01*
X124404603Y-83280109D01*
X124540962Y-83188997D01*
X124693506Y-83125811D01*
X124774475Y-83109705D01*
X124855443Y-83093600D01*
X125020557Y-83093600D01*
X125101525Y-83109706D01*
X125101525Y-83109706D01*
G37*
G36*
X140341525Y-83109706D02*
G01*
X140422494Y-83125811D01*
X140575038Y-83188997D01*
X140711397Y-83280109D01*
X140712322Y-83280727D01*
X140829073Y-83397478D01*
X140829075Y-83397481D01*
X140920803Y-83534762D01*
X140983989Y-83687307D01*
X141016200Y-83849243D01*
X141016200Y-84014357D01*
X140983989Y-84176293D01*
X140920803Y-84328838D01*
X140829691Y-84465197D01*
X140829073Y-84466122D01*
X140712322Y-84582873D01*
X140712319Y-84582875D01*
X140575038Y-84674603D01*
X140519926Y-84697431D01*
X140422494Y-84737789D01*
X140341525Y-84753895D01*
X140260557Y-84770000D01*
X140095443Y-84770000D01*
X140014475Y-84753894D01*
X139933506Y-84737789D01*
X139836074Y-84697431D01*
X139780962Y-84674603D01*
X139643681Y-84582875D01*
X139643678Y-84582873D01*
X139526927Y-84466122D01*
X139526309Y-84465197D01*
X139435197Y-84328838D01*
X139372011Y-84176293D01*
X139339800Y-84014357D01*
X139339800Y-83849243D01*
X139372011Y-83687307D01*
X139435197Y-83534762D01*
X139526925Y-83397481D01*
X139526927Y-83397478D01*
X139643678Y-83280727D01*
X139644603Y-83280109D01*
X139780962Y-83188997D01*
X139933506Y-83125811D01*
X140014475Y-83109705D01*
X140095443Y-83093600D01*
X140260557Y-83093600D01*
X140341525Y-83109706D01*
X140341525Y-83109706D01*
G37*
G36*
X137801525Y-83109706D02*
G01*
X137882494Y-83125811D01*
X138035038Y-83188997D01*
X138171397Y-83280109D01*
X138172322Y-83280727D01*
X138289073Y-83397478D01*
X138289075Y-83397481D01*
X138380803Y-83534762D01*
X138443989Y-83687307D01*
X138476200Y-83849243D01*
X138476200Y-84014357D01*
X138443989Y-84176293D01*
X138380803Y-84328838D01*
X138289691Y-84465197D01*
X138289073Y-84466122D01*
X138172322Y-84582873D01*
X138172319Y-84582875D01*
X138035038Y-84674603D01*
X137979926Y-84697431D01*
X137882494Y-84737789D01*
X137801525Y-84753895D01*
X137720557Y-84770000D01*
X137555443Y-84770000D01*
X137474475Y-84753894D01*
X137393506Y-84737789D01*
X137296074Y-84697431D01*
X137240962Y-84674603D01*
X137103681Y-84582875D01*
X137103678Y-84582873D01*
X136986927Y-84466122D01*
X136986309Y-84465197D01*
X136895197Y-84328838D01*
X136832011Y-84176293D01*
X136799800Y-84014357D01*
X136799800Y-83849243D01*
X136832011Y-83687307D01*
X136895197Y-83534762D01*
X136986925Y-83397481D01*
X136986927Y-83397478D01*
X137103678Y-83280727D01*
X137104603Y-83280109D01*
X137240962Y-83188997D01*
X137393506Y-83125811D01*
X137474475Y-83109705D01*
X137555443Y-83093600D01*
X137720557Y-83093600D01*
X137801525Y-83109706D01*
X137801525Y-83109706D01*
G37*
G36*
X127987600Y-83481000D02*
G01*
X126784400Y-83481000D01*
X126784400Y-82177800D01*
X127987600Y-82177800D01*
X127987600Y-83481000D01*
X127987600Y-83481000D01*
G37*
G36*
X125101525Y-80569706D02*
G01*
X125182494Y-80585811D01*
X125335038Y-80648997D01*
X125471397Y-80740109D01*
X125472322Y-80740727D01*
X125589073Y-80857478D01*
X125589075Y-80857481D01*
X125680803Y-80994762D01*
X125743989Y-81147307D01*
X125776200Y-81309243D01*
X125776200Y-81474357D01*
X125743989Y-81636293D01*
X125680803Y-81788838D01*
X125589691Y-81925197D01*
X125589073Y-81926122D01*
X125472322Y-82042873D01*
X125472319Y-82042875D01*
X125335038Y-82134603D01*
X125182494Y-82197789D01*
X125101525Y-82213895D01*
X125020557Y-82230000D01*
X124855443Y-82230000D01*
X124774475Y-82213895D01*
X124693506Y-82197789D01*
X124617235Y-82166196D01*
X124540962Y-82134603D01*
X124403681Y-82042875D01*
X124403678Y-82042873D01*
X124286927Y-81926122D01*
X124286309Y-81925197D01*
X124195197Y-81788838D01*
X124132011Y-81636293D01*
X124099800Y-81474357D01*
X124099800Y-81309243D01*
X124132011Y-81147307D01*
X124195197Y-80994762D01*
X124286925Y-80857481D01*
X124286927Y-80857478D01*
X124403678Y-80740727D01*
X124404603Y-80740109D01*
X124540962Y-80648997D01*
X124617235Y-80617404D01*
X124693506Y-80585811D01*
X124774475Y-80569706D01*
X124855443Y-80553600D01*
X125020557Y-80553600D01*
X125101525Y-80569706D01*
X125101525Y-80569706D01*
G37*
G36*
X140341525Y-80569706D02*
G01*
X140422494Y-80585811D01*
X140575038Y-80648997D01*
X140711397Y-80740109D01*
X140712322Y-80740727D01*
X140829073Y-80857478D01*
X140829075Y-80857481D01*
X140920803Y-80994762D01*
X140983989Y-81147307D01*
X141016200Y-81309243D01*
X141016200Y-81474357D01*
X140983989Y-81636293D01*
X140920803Y-81788838D01*
X140829691Y-81925197D01*
X140829073Y-81926122D01*
X140712322Y-82042873D01*
X140712319Y-82042875D01*
X140575038Y-82134603D01*
X140422494Y-82197789D01*
X140341525Y-82213895D01*
X140260557Y-82230000D01*
X140095443Y-82230000D01*
X140014475Y-82213895D01*
X139933506Y-82197789D01*
X139857235Y-82166196D01*
X139780962Y-82134603D01*
X139643681Y-82042875D01*
X139643678Y-82042873D01*
X139526927Y-81926122D01*
X139526309Y-81925197D01*
X139435197Y-81788838D01*
X139372011Y-81636293D01*
X139339800Y-81474357D01*
X139339800Y-81309243D01*
X139372011Y-81147307D01*
X139435197Y-80994762D01*
X139526925Y-80857481D01*
X139526927Y-80857478D01*
X139643678Y-80740727D01*
X139644603Y-80740109D01*
X139780962Y-80648997D01*
X139857235Y-80617404D01*
X139933506Y-80585811D01*
X140014475Y-80569706D01*
X140095443Y-80553600D01*
X140260557Y-80553600D01*
X140341525Y-80569706D01*
X140341525Y-80569706D01*
G37*
M02*
